<svg width="794" height="1261" viewBox="0 0 794 1261" fill="none" xmlns="http://www.w3.org/2000/svg">
<g filter="url(#filter0_i_16_12308)">
<path d="M650.357 1112.21L557.262 1261H367.039L460.068 1112.21L0.531738 377.439L95.7319 225.352L650.357 1112.21Z" fill="url(#paint0_linear_16_12308)"/>
</g>
<g opacity="0.2">
<path d="M650.357 1112.21L557.262 1261H367.039L460.068 1112.21L0.531738 377.439L95.7319 225.352L650.357 1112.21Z" fill="url(#paint1_radial_16_12308)"/>
<path d="M650.357 1112.21L557.262 1261H367.039L460.068 1112.21L0.531738 377.439L95.7319 225.352L650.357 1112.21Z" fill="url(#paint2_radial_16_12308)" fill-opacity="0.4"/>
</g>
<path d="M364.358 1112.37L271.396 1261H79.7989L172.827 1112.21L0 835.825L95.7321 682.786L364.358 1112.37Z" fill="url(#paint3_linear_16_12308)"/>
<path d="M789.457 887.897L789.453 887.903L777.488 907.164L777.487 907.166L745.156 958.841L732.902 978.392L733.325 978.657L732.901 978.392L700.082 1030.82L700.081 1030.82L697.667 1034.72L662.46 978.392L662.036 978.657L662.46 978.392L617.873 907.164L575.015 838.682L530.518 767.454L530.094 767.719L530.518 767.454L487.682 698.972L443.162 627.744L442.739 628.009L443.162 627.744L400.327 559.262L399.903 559.527L400.327 559.262L355.74 488.034L312.971 419.64L268.474 348.435L268.05 348.7L268.474 348.435L225.638 279.93L225.638 279.93L181.03 208.725L181.029 208.724L143.612 148.855L148.719 140.752L148.72 140.75L193.218 69.5446L193.218 69.5444L236.142 0.951611L236.146 0.944675L236.15 0.937601L236.405 0.5H425.424L382.637 69.0144L382.637 69.0145L338.14 140.218L338.139 140.22L332.866 148.588L332.699 148.853L332.865 149.119L370.471 209.255L370.471 209.255L415.057 280.46L415.058 280.461L457.804 348.964L457.805 348.965L502.413 420.17L502.413 420.171L545.16 488.564L545.16 488.564L589.746 559.792L589.746 559.792L632.493 628.274L632.493 628.275L677.102 699.502L719.938 767.984L764.435 839.212L764.859 838.947L764.435 839.212L792.211 883.602L789.457 887.897Z" fill="url(#paint4_linear_16_12308)" stroke="url(#paint5_linear_16_12308)"/>
<g opacity="0.2">
<path d="M792.803 883.606L789.878 888.167L777.911 907.429L745.58 959.107L733.325 978.657L700.506 1031.09L697.669 1035.67L662.036 978.657L617.449 907.429L574.592 838.947L530.094 767.719L487.258 699.237L442.739 628.009L399.903 559.527L355.317 488.299L312.547 419.905L268.05 348.7L225.214 280.195L180.606 208.99L143.022 148.854L148.296 140.485L192.794 69.2794L235.718 0.686373L236.117 0H426.296L425.897 0.686373L383.061 69.2794L338.563 140.485L333.289 148.854L370.895 208.99L415.481 280.195L458.228 348.7L502.837 419.905L545.584 488.299L590.17 559.527L632.917 628.009L677.526 699.237L720.361 767.719L764.859 838.947L792.803 883.606Z" fill="url(#paint6_radial_16_12308)" fill-opacity="0.5"/>
<path d="M792.803 883.606L789.878 888.167L777.911 907.429L745.58 959.107L733.325 978.657L700.506 1031.09L697.669 1035.67L662.036 978.657L617.449 907.429L574.592 838.947L530.094 767.719L487.258 699.237L442.739 628.009L399.903 559.527L355.317 488.299L312.547 419.905L268.05 348.7L225.214 280.195L180.606 208.99L143.022 148.854L148.296 140.485L192.794 69.2794L235.718 0.686373L236.117 0H426.296L425.897 0.686373L383.061 69.2794L338.563 140.485L333.289 148.854L370.895 208.99L415.481 280.195L458.228 348.7L502.837 419.905L545.584 488.299L590.17 559.527L632.917 628.009L677.526 699.237L720.361 767.719L764.859 838.947L792.803 883.606Z" fill="url(#paint7_radial_16_12308)"/>
</g>
<path d="M429.021 148.7L521.961 0.0444336H713.558L620.53 148.832L793.379 425.241L697.647 578.258L429.021 148.7Z" fill="url(#paint8_linear_16_12308)"/>
<g opacity="0.7" filter="url(#filter1_i_16_12308)">
<path d="M429.021 148.7L521.961 0.0444336H713.558L620.53 148.832L793.379 425.241L697.647 578.258L429.021 148.7Z" fill="url(#paint9_linear_16_12308)" fill-opacity="0.01"/>
</g>
<g opacity="0.1">
<path d="M429.021 148.7L521.961 0.0444336H713.558L620.53 148.832L793.379 425.241L697.647 578.258L429.021 148.7Z" fill="url(#paint10_radial_16_12308)" fill-opacity="0.2"/>
<path d="M429.021 148.7L521.961 0.0444336H713.558L620.53 148.832L793.379 425.241L697.647 578.258L429.021 148.7Z" fill="url(#paint11_radial_16_12308)" fill-opacity="0.6"/>
</g>
<defs>
<filter id="filter0_i_16_12308" x="0.531738" y="225.352" width="649.826" height="1035.65" filterUnits="userSpaceOnUse" color-interpolation-filters="sRGB">
<feFlood flood-opacity="0" result="BackgroundImageFix"/>
<feBlend mode="normal" in="SourceGraphic" in2="BackgroundImageFix" result="shape"/>
<feColorMatrix in="SourceAlpha" type="matrix" values="0 0 0 0 0 0 0 0 0 0 0 0 0 0 0 0 0 0 127 0" result="hardAlpha"/>
<feOffset dx="-1" dy="1"/>
<feComposite in2="hardAlpha" operator="arithmetic" k2="-1" k3="1"/>
<feColorMatrix type="matrix" values="0 0 0 0 0.823529 0 0 0 0 0.32549 0 0 0 0 0.541177 0 0 0 0.33 0"/>
<feBlend mode="normal" in2="shape" result="effect1_innerShadow_16_12308"/>
</filter>
<filter id="filter1_i_16_12308" x="429.021" y="0.0444336" width="364.358" height="578.214" filterUnits="userSpaceOnUse" color-interpolation-filters="sRGB">
<feFlood flood-opacity="0" result="BackgroundImageFix"/>
<feBlend mode="normal" in="SourceGraphic" in2="BackgroundImageFix" result="shape"/>
<feColorMatrix in="SourceAlpha" type="matrix" values="0 0 0 0 0 0 0 0 0 0 0 0 0 0 0 0 0 0 127 0" result="hardAlpha"/>
<feOffset dx="-1" dy="1"/>
<feComposite in2="hardAlpha" operator="arithmetic" k2="-1" k3="1"/>
<feColorMatrix type="matrix" values="0 0 0 0 1 0 0 0 0 1 0 0 0 0 1 0 0 0 0.3 0"/>
<feBlend mode="normal" in2="shape" result="effect1_innerShadow_16_12308"/>
</filter>
<linearGradient id="paint0_linear_16_12308" x1="-524.089" y1="1420.35" x2="391.6" y2="670.099" gradientUnits="userSpaceOnUse">
<stop stop-color="white" stop-opacity="0.5"/>
<stop offset="1"/>
</linearGradient>
<radialGradient id="paint1_radial_16_12308" cx="0" cy="0" r="1" gradientUnits="userSpaceOnUse" gradientTransform="translate(366.51 958.424) rotate(92.9399) scale(800.684 506.858)">
<stop stop-color="#00DFFF" stop-opacity="0.25"/>
<stop offset="1" stop-color="#181818" stop-opacity="0"/>
</radialGradient>
<radialGradient id="paint2_radial_16_12308" cx="0" cy="0" r="1" gradientUnits="userSpaceOnUse" gradientTransform="translate(55.0418 615.501) rotate(67.7589) scale(526.216 292.773)">
<stop stop-color="#FC576E"/>
<stop offset="1" stop-color="#181818" stop-opacity="0"/>
</radialGradient>
<linearGradient id="paint3_linear_16_12308" x1="-508.577" y1="1624.05" x2="256.8" y2="890.76" gradientUnits="userSpaceOnUse">
<stop stop-color="white" stop-opacity="0.5"/>
<stop offset="1"/>
</linearGradient>
<linearGradient id="paint4_linear_16_12308" x1="852.5" y1="140" x2="347.287" y2="518.383" gradientUnits="userSpaceOnUse">
<stop stop-color="white" stop-opacity="0.5"/>
<stop offset="1"/>
</linearGradient>
<linearGradient id="paint5_linear_16_12308" x1="649" y1="392" x2="411" y2="581" gradientUnits="userSpaceOnUse">
<stop stop-color="white"/>
<stop offset="1" stop-opacity="0"/>
</linearGradient>
<radialGradient id="paint6_radial_16_12308" cx="0" cy="0" r="1" gradientUnits="userSpaceOnUse" gradientTransform="translate(508.975 733.089) rotate(92.9396) scale(800.701 506.823)">
<stop stop-color="#00DFFF" stop-opacity="0.25"/>
<stop offset="1" stop-color="#181818" stop-opacity="0"/>
</radialGradient>
<radialGradient id="paint7_radial_16_12308" cx="0" cy="0" r="1" gradientUnits="userSpaceOnUse" gradientTransform="translate(197.528 390.157) rotate(67.7607) scale(526.22 292.757)">
<stop stop-color="#FC576E"/>
<stop offset="1" stop-color="#181818" stop-opacity="0"/>
</radialGradient>
<linearGradient id="paint8_linear_16_12308" x1="142.595" y1="618.05" x2="654.34" y2="255.618" gradientUnits="userSpaceOnUse">
<stop stop-color="white" stop-opacity="0.5"/>
<stop offset="1"/>
</linearGradient>
<linearGradient id="paint9_linear_16_12308" x1="134.866" y1="667.225" x2="646.531" y2="246.209" gradientUnits="userSpaceOnUse">
<stop stop-color="white" stop-opacity="0.5"/>
<stop offset="1"/>
</linearGradient>
<radialGradient id="paint10_radial_16_12308" cx="0" cy="0" r="1" gradientUnits="userSpaceOnUse" gradientTransform="translate(634.226 409.327) rotate(92.9524) scale(447.036 284.192)">
<stop stop-color="#00DFFF" stop-opacity="0.25"/>
<stop offset="1" stop-color="#181818" stop-opacity="0"/>
</radialGradient>
<radialGradient id="paint11_radial_16_12308" cx="0" cy="0" r="1" gradientUnits="userSpaceOnUse" gradientTransform="translate(459.585 217.869) rotate(67.6731) scale(293.973 164.057)">
<stop stop-color="#FC576E"/>
<stop offset="1" stop-color="#181818" stop-opacity="0"/>
</radialGradient>
</defs>
</svg>
