<svg width="17" height="26" viewBox="0 0 17 26" fill="none" xmlns="http://www.w3.org/2000/svg">
<path fill-rule="evenodd" clip-rule="evenodd" d="M16.9861 18.2195L16.9259 18.313L16.6787 18.7099L16.0129 19.7754L15.7593 20.1787L15.0845 21.2595L15.0256 21.3543L14.2918 20.1787L13.3724 18.7099L12.4901 17.2975L11.5732 15.83L10.6909 14.4176L9.77407 12.9488L8.89178 11.5364L7.97235 10.0689L7.09134 8.65772L6.17576 7.19022L5.29218 5.77779L4.37404 4.30901L3.59931 3.06945L3.70816 2.89658L4.62502 1.4278L5.50859 0.0140859L5.51756 0H9.43473L9.42704 0.0140859L8.54475 1.4278L7.62789 2.89658L7.51904 3.06945L8.29377 4.30901L9.21191 5.77779L10.0929 7.19022L11.0111 8.65772L11.8921 10.0689L12.8115 11.5364L13.6912 12.9488L14.6107 14.4176L15.493 15.83L16.4098 17.2975L16.9861 18.2195ZM12.1323 26L14.0505 22.9331L2.62427 4.64575L0.663765 7.78179L10.1308 22.9331L8.21382 26H12.1323ZM6.24337 25.9998L8.15905 22.9355L2.62456 14.078L0.652534 17.2332L4.21371 22.9329L2.29675 25.9998H6.24337ZM11.4053 0.0012207L9.49091 3.06555L15.0254 11.923L16.9974 8.76779L13.4363 3.06939L15.3532 0.0012207H11.4053Z" fill="url(#paint0_linear_16_12384)"/>
<defs>
<linearGradient id="paint0_linear_16_12384" x1="11.4998" y1="6.99999" x2="-51.5" y2="76.0006" gradientUnits="userSpaceOnUse">
<stop stop-color="#94B1B7"/>
<stop offset="1" stop-color="#42565A" stop-opacity="0"/>
</linearGradient>
</defs>
</svg>
