<svg width="598" height="628" viewBox="0 0 598 628" fill="none" xmlns="http://www.w3.org/2000/svg">
<path d="M298.998 134.184C390.022 134.184 463.812 207.974 463.812 298.998C463.812 390.022 390.022 463.812 298.998 463.812C207.973 463.812 134.184 390.022 134.184 298.998C134.184 207.974 207.973 134.184 298.998 134.184ZM298.998 422.705C367.319 422.705 422.705 367.32 422.705 298.998C422.705 230.677 367.319 175.291 298.998 175.291C230.676 175.291 175.29 230.677 175.29 298.998C175.29 367.32 230.676 422.705 298.998 422.705Z" fill="#222222"/>
<path d="M298.998 134.184C390.022 134.184 463.812 207.974 463.812 298.998C463.812 390.022 390.022 463.812 298.998 463.812C207.973 463.812 134.184 390.022 134.184 298.998C134.184 207.974 207.973 134.184 298.998 134.184ZM298.998 422.705C367.319 422.705 422.705 367.32 422.705 298.998C422.705 230.677 367.319 175.291 298.998 175.291C230.676 175.291 175.29 230.677 175.29 298.998C175.29 367.32 230.676 422.705 298.998 422.705Z" fill="url(#paint0_radial_16_11799)" fill-opacity="0.4"/>
<path d="M298.998 134.184C390.022 134.184 463.812 207.974 463.812 298.998C463.812 390.022 390.022 463.812 298.998 463.812C207.973 463.812 134.184 390.022 134.184 298.998C134.184 207.974 207.973 134.184 298.998 134.184ZM298.998 422.705C367.319 422.705 422.705 367.32 422.705 298.998C422.705 230.677 367.319 175.291 298.998 175.291C230.676 175.291 175.29 230.677 175.29 298.998C175.29 367.32 230.676 422.705 298.998 422.705Z" fill="url(#paint1_radial_16_11799)" fill-opacity="0.5"/>
<g opacity="0.1">
<path d="M299.001 1.40213C134.641 1.40214 1.40139 134.642 1.4014 299.002C1.40142 463.362 134.641 596.602 299.001 596.602C463.361 596.602 596.601 463.362 596.601 299.002C596.601 134.642 463.361 1.40211 299.001 1.40213Z" stroke="url(#paint2_linear_16_11799)" stroke-width="1.2"/>
<path d="M299.001 1.40213C134.641 1.40214 1.40139 134.642 1.4014 299.002C1.40142 463.362 134.641 596.602 299.001 596.602C463.361 596.602 596.601 463.362 596.601 299.002C596.601 134.642 463.361 1.40211 299.001 1.40213Z" stroke="url(#paint3_linear_16_11799)" stroke-opacity="0.9" stroke-width="1.2"/>
</g>
<g opacity="0.1">
<path d="M497.877 298.998C497.877 189.16 408.836 100.119 298.998 100.119C189.16 100.119 100.119 189.16 100.119 298.998C100.119 408.835 189.16 497.876 298.998 497.876C408.836 497.876 497.877 408.835 497.877 298.998Z" stroke="url(#paint4_linear_16_11799)" stroke-width="1.2"/>
<path d="M497.877 298.998C497.877 189.16 408.836 100.119 298.998 100.119C189.16 100.119 100.119 189.16 100.119 298.998C100.119 408.835 189.16 497.876 298.998 497.876C408.836 497.876 497.877 408.835 497.877 298.998Z" stroke="url(#paint5_linear_16_11799)" stroke-opacity="0.9" stroke-width="1.2"/>
</g>
<g opacity="0.4">
<path d="M548.074 298.998C548.074 161.437 436.559 49.9216 298.998 49.9216C161.438 49.9216 49.9224 161.437 49.9224 298.998C49.9224 436.558 161.438 548.074 298.998 548.074C436.559 548.074 548.074 436.558 548.074 298.998Z" stroke="url(#paint6_linear_16_11799)" stroke-width="1.2"/>
<path d="M548.074 298.998C548.074 161.437 436.559 49.9216 298.998 49.9216C161.438 49.9216 49.9224 161.437 49.9224 298.998C49.9224 436.558 161.438 548.074 298.998 548.074C436.559 548.074 548.074 436.558 548.074 298.998Z" stroke="url(#paint7_linear_16_11799)" stroke-opacity="0.9" stroke-width="1.2"/>
</g>
<path d="M299.001 150.829C380.834 150.829 447.173 217.168 447.173 299.001C447.173 380.834 380.834 447.173 299.001 447.173C217.168 447.173 150.829 380.834 150.829 299.001C150.829 217.168 217.168 150.829 299.001 150.829ZM299.001 421.906C366.88 421.906 421.906 366.88 421.906 299.001C421.906 231.123 366.88 176.096 299.001 176.096C231.122 176.096 176.096 231.123 176.096 299.001C176.096 366.88 231.122 421.906 299.001 421.906Z" fill="#252525"/>
<g filter="url(#filter0_dddddd_16_11799)">
<g filter="url(#filter1_d_16_11799)">
<path d="M299.002 150.829C336.287 150.829 372.201 164.886 399.581 190.195C426.96 215.504 443.791 250.205 446.717 287.376C449.642 324.546 438.447 361.453 415.363 390.734C392.28 420.014 359.007 439.516 322.181 445.349C285.355 451.182 247.683 442.916 216.682 422.202C185.68 401.487 163.628 369.846 154.924 333.591C146.22 297.336 151.504 259.132 169.722 226.601C187.94 194.07 217.754 169.603 253.214 158.081L262.894 187.875C234.931 196.961 211.421 216.255 197.055 241.908C182.688 267.562 178.521 297.688 185.385 326.278C192.249 354.868 209.639 379.819 234.086 396.154C258.533 412.489 288.24 419.007 317.28 414.408C346.32 409.808 372.559 394.429 390.762 371.339C408.965 348.249 417.793 319.145 415.486 289.834C413.179 260.522 399.907 233.158 378.316 213.199C356.725 193.241 328.404 182.156 299.002 182.156L299.002 150.829Z" fill="url(#paint8_linear_16_11799)" fill-opacity="0.8" shape-rendering="crispEdges"/>
</g>
<path d="M299.002 150.829C334.282 150.829 368.404 163.418 395.231 186.33C422.059 209.243 439.83 240.976 445.349 275.822C450.868 310.668 443.773 346.339 425.339 376.421C406.905 406.502 378.343 429.019 344.789 439.921C311.236 450.823 274.893 449.395 242.299 435.894C209.704 422.393 182.996 397.705 166.979 366.27C150.962 334.835 146.688 298.717 154.924 264.411C163.16 230.106 183.366 199.865 211.908 179.128L236.779 213.359C216.388 228.175 201.951 249.78 196.067 274.289C190.183 298.798 193.237 324.602 204.68 347.06C216.123 369.518 235.204 387.157 258.491 396.802C281.778 406.448 307.742 407.468 331.714 399.679C355.686 391.89 376.091 375.803 389.261 354.312C402.431 332.821 407.5 307.336 403.557 282.441C399.614 257.546 386.918 234.875 367.751 218.505C348.585 202.136 324.207 193.142 299.002 193.142L299.002 150.829Z" fill="url(#paint9_linear_16_11799)"/>
<g filter="url(#filter2_d_16_11799)">
<path d="M299.002 150.829C330.292 150.829 360.78 160.735 386.095 179.128C411.41 197.52 430.252 223.454 439.921 253.214C449.591 282.973 449.591 315.029 439.921 344.789C430.252 374.548 411.41 400.483 386.095 418.875C360.78 437.267 330.292 447.173 299.002 447.173C267.711 447.173 237.223 437.267 211.908 418.875C186.593 400.482 167.751 374.548 158.082 344.789C148.412 315.029 148.412 282.973 158.082 253.214L209.96 270.07C203.85 288.874 203.85 309.129 209.96 327.933C216.069 346.736 227.975 363.123 243.971 374.745C259.966 386.366 279.23 392.625 299.002 392.625C318.773 392.625 338.037 386.366 354.032 374.745C370.028 363.123 381.934 346.736 388.043 327.933C394.153 309.129 394.153 288.874 388.043 270.07C381.934 251.266 370.028 234.879 354.032 223.258C338.037 211.636 318.773 205.377 299.002 205.377L299.002 150.829Z" fill="url(#paint10_linear_16_11799)" shape-rendering="crispEdges"/>
</g>
<path d="M299.088 150.916C326.414 150.916 353.208 158.473 376.508 172.751C399.807 187.029 418.704 207.472 431.11 231.82C443.516 256.167 448.947 283.472 446.803 310.714C444.659 337.956 435.024 364.074 418.962 386.181C402.9 408.289 381.037 425.524 355.791 435.981C330.545 446.438 302.899 449.711 275.909 445.436C248.919 441.161 223.637 429.506 202.858 411.759C182.079 394.012 166.612 370.865 158.168 344.876L225.524 322.991C229.932 336.557 238.006 348.641 248.853 357.905C259.7 367.17 272.898 373.254 286.988 375.486C301.077 377.717 315.509 376.009 328.688 370.55C341.868 365.091 353.281 356.094 361.665 344.553C370.05 333.013 375.08 319.378 376.199 305.157C377.319 290.936 374.483 276.682 368.007 263.972C361.531 251.262 351.666 240.59 339.503 233.137C327.34 225.683 313.353 221.738 299.088 221.738L299.088 150.916Z" fill="#737373" fill-opacity="0.9"/>
<path d="M299.088 150.916C326.414 150.916 353.208 158.473 376.508 172.751C399.807 187.029 418.704 207.472 431.11 231.82C443.516 256.167 448.947 283.472 446.803 310.714C444.659 337.956 435.024 364.074 418.962 386.181C402.9 408.289 381.037 425.524 355.791 435.981C330.545 446.438 302.899 449.711 275.909 445.436C248.919 441.161 223.637 429.506 202.858 411.759C182.079 394.012 166.612 370.865 158.168 344.876L225.524 322.991C229.932 336.557 238.006 348.641 248.853 357.905C259.7 367.17 272.898 373.254 286.988 375.486C301.077 377.717 315.509 376.009 328.688 370.55C341.868 365.091 353.281 356.094 361.665 344.553C370.05 333.013 375.08 319.378 376.199 305.157C377.319 290.936 374.483 276.682 368.007 263.972C361.531 251.262 351.666 240.59 339.503 233.137C327.34 225.683 313.353 221.738 299.088 221.738L299.088 150.916Z" fill="url(#paint11_radial_16_11799)"/>
<path d="M299.088 150.916C326.414 150.916 353.208 158.473 376.508 172.751C399.807 187.029 418.704 207.472 431.11 231.82C443.516 256.167 448.947 283.472 446.803 310.714C444.659 337.956 435.024 364.074 418.962 386.181C402.9 408.289 381.037 425.524 355.791 435.981C330.545 446.438 302.899 449.711 275.909 445.436C248.919 441.161 223.637 429.506 202.858 411.759C182.079 394.012 166.612 370.865 158.168 344.876L225.524 322.991C229.932 336.557 238.006 348.641 248.853 357.905C259.7 367.17 272.898 373.254 286.988 375.486C301.077 377.717 315.509 376.009 328.688 370.55C341.868 365.091 353.281 356.094 361.665 344.553C370.05 333.013 375.08 319.378 376.199 305.157C377.319 290.936 374.483 276.682 368.007 263.972C361.531 251.262 351.666 240.59 339.503 233.137C327.34 225.683 313.353 221.738 299.088 221.738L299.088 150.916Z" fill="url(#paint12_radial_16_11799)"/>
</g>
<defs>
<filter id="filter0_dddddd_16_11799" x="70.8293" y="150.829" width="456.431" height="476.431" filterUnits="userSpaceOnUse" color-interpolation-filters="sRGB">
<feFlood flood-opacity="0" result="BackgroundImageFix"/>
<feColorMatrix in="SourceAlpha" type="matrix" values="0 0 0 0 0 0 0 0 0 0 0 0 0 0 0 0 0 0 127 0" result="hardAlpha"/>
<feOffset dy="2.76726"/>
<feGaussianBlur stdDeviation="1.1069"/>
<feColorMatrix type="matrix" values="0 0 0 0 0 0 0 0 0 0 0 0 0 0 0 0 0 0 0.131881 0"/>
<feBlend mode="normal" in2="BackgroundImageFix" result="effect1_dropShadow_16_11799"/>
<feColorMatrix in="SourceAlpha" type="matrix" values="0 0 0 0 0 0 0 0 0 0 0 0 0 0 0 0 0 0 127 0" result="hardAlpha"/>
<feOffset dy="6.6501"/>
<feGaussianBlur stdDeviation="2.66004"/>
<feColorMatrix type="matrix" values="0 0 0 0 0 0 0 0 0 0 0 0 0 0 0 0 0 0 0.151234 0"/>
<feBlend mode="normal" in2="effect1_dropShadow_16_11799" result="effect2_dropShadow_16_11799"/>
<feColorMatrix in="SourceAlpha" type="matrix" values="0 0 0 0 0 0 0 0 0 0 0 0 0 0 0 0 0 0 127 0" result="hardAlpha"/>
<feOffset dy="12.5216"/>
<feGaussianBlur stdDeviation="5.00862"/>
<feColorMatrix type="matrix" values="0 0 0 0 0 0 0 0 0 0 0 0 0 0 0 0 0 0 0.162184 0"/>
<feBlend mode="normal" in2="effect2_dropShadow_16_11799" result="effect3_dropShadow_16_11799"/>
<feColorMatrix in="SourceAlpha" type="matrix" values="0 0 0 0 0 0 0 0 0 0 0 0 0 0 0 0 0 0 127 0" result="hardAlpha"/>
<feOffset dy="22.3363"/>
<feGaussianBlur stdDeviation="8.93452"/>
<feColorMatrix type="matrix" values="0 0 0 0 0 0 0 0 0 0 0 0 0 0 0 0 0 0 0.190476 0"/>
<feBlend mode="normal" in2="effect3_dropShadow_16_11799" result="effect4_dropShadow_16_11799"/>
<feColorMatrix in="SourceAlpha" type="matrix" values="0 0 0 0 0 0 0 0 0 0 0 0 0 0 0 0 0 0 127 0" result="hardAlpha"/>
<feOffset dy="41.7776"/>
<feGaussianBlur stdDeviation="16.711"/>
<feColorMatrix type="matrix" values="0 0 0 0 0 0 0 0 0 0 0 0 0 0 0 0 0 0 0.271636 0"/>
<feBlend mode="normal" in2="effect4_dropShadow_16_11799" result="effect5_dropShadow_16_11799"/>
<feColorMatrix in="SourceAlpha" type="matrix" values="0 0 0 0 0 0 0 0 0 0 0 0 0 0 0 0 0 0 127 0" result="hardAlpha"/>
<feOffset dy="100"/>
<feGaussianBlur stdDeviation="40"/>
<feColorMatrix type="matrix" values="0 0 0 0 0 0 0 0 0 0 0 0 0 0 0 0 0 0 0.69 0"/>
<feBlend mode="normal" in2="effect5_dropShadow_16_11799" result="effect6_dropShadow_16_11799"/>
<feBlend mode="normal" in="SourceGraphic" in2="effect6_dropShadow_16_11799" result="shape"/>
</filter>
<filter id="filter1_d_16_11799" x="126.829" y="130.829" width="344.344" height="344.344" filterUnits="userSpaceOnUse" color-interpolation-filters="sRGB">
<feFlood flood-opacity="0" result="BackgroundImageFix"/>
<feColorMatrix in="SourceAlpha" type="matrix" values="0 0 0 0 0 0 0 0 0 0 0 0 0 0 0 0 0 0 127 0" result="hardAlpha"/>
<feOffset dy="4"/>
<feGaussianBlur stdDeviation="12"/>
<feComposite in2="hardAlpha" operator="out"/>
<feColorMatrix type="matrix" values="0 0 0 0 0 0 0 0 0 0 0 0 0 0 0 0 0 0 0.15 0"/>
<feBlend mode="normal" in2="BackgroundImageFix" result="effect1_dropShadow_16_11799"/>
<feBlend mode="normal" in="SourceGraphic" in2="effect1_dropShadow_16_11799" result="shape"/>
</filter>
<filter id="filter2_d_16_11799" x="126.83" y="130.829" width="344.344" height="344.344" filterUnits="userSpaceOnUse" color-interpolation-filters="sRGB">
<feFlood flood-opacity="0" result="BackgroundImageFix"/>
<feColorMatrix in="SourceAlpha" type="matrix" values="0 0 0 0 0 0 0 0 0 0 0 0 0 0 0 0 0 0 127 0" result="hardAlpha"/>
<feOffset dy="4"/>
<feGaussianBlur stdDeviation="12"/>
<feComposite in2="hardAlpha" operator="out"/>
<feColorMatrix type="matrix" values="0 0 0 0 0 0 0 0 0 0 0 0 0 0 0 0 0 0 0.15 0"/>
<feBlend mode="normal" in2="BackgroundImageFix" result="effect1_dropShadow_16_11799"/>
<feBlend mode="normal" in="SourceGraphic" in2="effect1_dropShadow_16_11799" result="shape"/>
</filter>
<radialGradient id="paint0_radial_16_11799" cx="0" cy="0" r="1" gradientUnits="userSpaceOnUse" gradientTransform="translate(363.79 188.893) rotate(31.0461) scale(860.636 791.689)">
<stop stop-color="#00DFFF" stop-opacity="0.25"/>
<stop offset="1" stop-color="#808080" stop-opacity="0"/>
</radialGradient>
<radialGradient id="paint1_radial_16_11799" cx="0" cy="0" r="1" gradientUnits="userSpaceOnUse" gradientTransform="translate(-30.6305 265.806) rotate(-3.1779) scale(550.957 298.092)">
<stop stop-color="#FC576E"/>
<stop offset="1" stop-color="#808080" stop-opacity="0"/>
</radialGradient>
<linearGradient id="paint2_linear_16_11799" x1="62.0578" y1="228.534" x2="602.733" y2="193.413" gradientUnits="userSpaceOnUse">
<stop stop-color="#00DFFF"/>
<stop offset="1" stop-color="#FC576E"/>
</linearGradient>
<linearGradient id="paint3_linear_16_11799" x1="11.2826" y1="596.002" x2="158.902" y2="566.816" gradientUnits="userSpaceOnUse">
<stop stop-color="white"/>
<stop offset="1" stop-color="white" stop-opacity="0"/>
</linearGradient>
<linearGradient id="paint4_linear_16_11799" x1="346.043" y1="140.813" x2="369.49" y2="501.771" gradientUnits="userSpaceOnUse">
<stop stop-color="#00DFFF"/>
<stop offset="1" stop-color="#FC576E"/>
</linearGradient>
<linearGradient id="paint5_linear_16_11799" x1="100.719" y1="106.915" x2="120.204" y2="205.467" gradientUnits="userSpaceOnUse">
<stop stop-color="white"/>
<stop offset="1" stop-color="white" stop-opacity="0"/>
</linearGradient>
<linearGradient id="paint6_linear_16_11799" x1="357.953" y1="100.766" x2="387.336" y2="553.106" gradientUnits="userSpaceOnUse">
<stop stop-color="#00DFFF"/>
<stop offset="1" stop-color="#FC576E"/>
</linearGradient>
<linearGradient id="paint7_linear_16_11799" x1="50.5223" y1="58.2865" x2="74.9403" y2="181.788" gradientUnits="userSpaceOnUse">
<stop stop-color="white"/>
<stop offset="1" stop-color="white" stop-opacity="0"/>
</linearGradient>
<linearGradient id="paint8_linear_16_11799" x1="433.693" y1="581.775" x2="130" y2="-59.9118" gradientUnits="userSpaceOnUse">
<stop stop-color="#6A2A20"/>
<stop offset="1" stop-color="#FFDF80"/>
</linearGradient>
<linearGradient id="paint9_linear_16_11799" x1="-57.1279" y1="150.827" x2="322.951" y2="980.353" gradientUnits="userSpaceOnUse">
<stop stop-color="#44172A"/>
<stop offset="1" stop-color="#FC576E" stop-opacity="0.74"/>
</linearGradient>
<linearGradient id="paint10_linear_16_11799" x1="363.658" y1="453.459" x2="429.517" y2="174.588" gradientUnits="userSpaceOnUse">
<stop stop-color="#6A7A73"/>
<stop offset="1" stop-color="#00F076" stop-opacity="0"/>
</linearGradient>
<radialGradient id="paint11_radial_16_11799" cx="0" cy="0" r="1" gradientUnits="userSpaceOnUse" gradientTransform="translate(318.24 52.1956) rotate(67.6097) scale(385.459 208.551)">
<stop stop-color="#FC576E"/>
<stop offset="1" stop-color="#808080" stop-opacity="0"/>
</radialGradient>
<radialGradient id="paint12_radial_16_11799" cx="0" cy="0" r="1" gradientUnits="userSpaceOnUse" gradientTransform="translate(156.773 350.032) rotate(39.0681) scale(540.938 369.027)">
<stop stop-color="#00DFFF" stop-opacity="0.25"/>
<stop offset="1" stop-color="#808080" stop-opacity="0"/>
</radialGradient>
</defs>
</svg>
