<svg width="38" height="38" viewBox="0 0 38 38" fill="none" xmlns="http://www.w3.org/2000/svg">
<rect width="38" height="38" fill="#ECECEC"/>
<path fill-rule="evenodd" clip-rule="evenodd" d="M27.3335 24.2195L27.2733 24.313L27.0262 24.7099L26.3603 25.7754L26.1068 26.1787L25.4319 27.2595L25.373 27.3543L24.6393 26.1787L23.7198 24.7099L22.8376 23.2975L21.9207 21.83L21.0384 20.4176L20.1215 18.9488L19.2392 17.5364L18.3198 16.0689L17.4388 14.6577L16.5232 13.1902L15.6396 11.7778L14.7215 10.309L13.9468 9.06945L14.0556 8.89658L14.9725 7.4278L15.8561 6.01409L15.865 6H19.7822L19.7745 6.01409L18.8922 7.4278L17.9754 8.89658L17.8665 9.06945L18.6412 10.309L19.5594 11.7778L20.4404 13.1902L21.3585 14.6577L22.2395 16.0689L23.159 17.5364L24.0387 18.9488L24.9581 20.4176L25.8404 21.83L26.7573 23.2975L27.3335 24.2195ZM22.4797 32L24.398 28.9331L12.9717 10.6458L11.0112 13.7818L20.4783 28.9331L18.5613 32H22.4797ZM16.5908 31.9998L18.5065 28.9355L12.972 20.078L11 23.2332L14.5612 28.9329L12.6442 31.9998H16.5908ZM21.7528 6.00122L19.8384 9.06555L25.3729 17.923L27.3449 14.7678L23.7837 9.06939L25.7007 6.00122H21.7528Z" fill="black"/>
</svg>
