<svg width="1344" height="146" viewBox="0 0 1344 146" fill="none" xmlns="http://www.w3.org/2000/svg">
<path d="M0 73V73C32.608 73 64.5761 64.8662 94.595 52.1324C191.29 11.1151 259.613 10.2943 354.392 51.6546C384.03 64.5882 415.663 73 448 73V73" stroke="url(#paint0_radial_16_12416)" stroke-width="1.2"/>
<path d="M0 73V73C32.314 73 63.59 62.6117 91.3481 46.0684C191.059 -13.3568 260.372 -14.511 358.116 45.5524C385.402 62.3198 416.307 73 448.334 73V73" stroke="url(#paint1_radial_16_12416)" stroke-width="1.2"/>
<path d="M0 72.9999H7.03573C35.195 72.9999 63.0828 67.901 90.0156 59.6809C189.967 29.1751 259.26 28.3475 356.78 58.6999C384.78 67.4146 413.787 72.9999 443.112 72.9999H448" stroke="url(#paint2_radial_16_12416)" stroke-width="1.2"/>
<path d="M0 73H28.5295C42.5372 73 56.5528 71.7785 70.3858 69.5732C188.276 50.7787 262.025 50.3319 377.091 69.2874C391.519 71.6641 406.135 73 420.757 73H448" stroke="url(#paint3_radial_16_12416)" stroke-width="1.2"/>
<path d="M0 73V73C32.608 73 64.5761 81.1338 94.595 93.8676C191.29 134.885 259.613 135.706 354.392 94.3454C384.03 81.4118 415.663 73 448 73V73" stroke="url(#paint4_radial_16_12416)" stroke-width="1.2"/>
<path d="M0 73V73C32.314 73 63.59 83.3883 91.3481 99.9316C191.059 159.357 260.372 160.511 358.116 100.448C385.402 83.6802 416.307 73 448.334 73V73" stroke="url(#paint5_radial_16_12416)" stroke-width="1.2"/>
<path d="M0 73.0001H7.03573C35.195 73.0001 63.0828 78.099 90.0156 86.3191C189.967 116.825 259.26 117.653 356.78 87.3001C384.78 78.5854 413.787 73.0001 443.112 73.0001H448" stroke="url(#paint6_radial_16_12416)" stroke-width="1.2"/>
<path d="M0 73H28.5295C42.5372 73 56.5528 74.2215 70.3858 76.4268C188.276 95.2213 262.025 95.6681 377.091 76.7126C391.519 74.3359 406.135 73 420.757 73H448" stroke="url(#paint7_radial_16_12416)" stroke-width="1.2"/>
<path d="M0 73.0001H49.5782C187.495 74.5594 263.986 74.5922 398.781 73.0001H448" stroke="url(#paint8_radial_16_12416)" stroke-width="1.2"/>
<path d="M447 73H453.705C482.104 73 510.225 67.8106 537.369 59.4606C637.141 28.7694 706.408 27.9353 803.754 58.4663C831.972 67.3165 861.217 73 890.79 73H895.334" stroke="url(#paint9_radial_16_12416)" stroke-width="1.2"/>
<path d="M447 73.0001H465.934C486.312 73.0001 506.625 70.3777 526.498 65.8723C636.076 41.0299 708.048 40.4027 814.967 65.3062C835.665 70.1273 856.835 73.0001 878.087 73.0001H895.334" stroke="url(#paint10_radial_16_12416)" stroke-width="1.2"/>
<path d="M447 72.9996H496.615C634.634 56.3571 711.182 56.0067 846.078 72.9996H895.334" stroke="url(#paint11_radial_16_12416)" stroke-width="1.2"/>
<path d="M447 73H453.705C482.104 73 510.225 78.1894 537.369 86.5394C637.141 117.231 706.408 118.065 803.754 87.5337C831.972 78.6835 861.217 73 890.79 73H895.334" stroke="url(#paint12_radial_16_12416)" stroke-width="1.2"/>
<path d="M447 72.9999H465.934C486.312 72.9999 506.625 75.6223 526.498 80.1277C636.076 104.97 708.048 105.597 814.967 80.6938C835.665 75.8727 856.835 72.9999 878.087 72.9999H895.334" stroke="url(#paint13_radial_16_12416)" stroke-width="1.2"/>
<path d="M447 73.0004H496.615C634.634 89.6429 711.182 89.9933 846.078 73.0004H895.334" stroke="url(#paint14_radial_16_12416)" stroke-width="1.2"/>
<path d="M447 73.0002H496.615C634.634 74.1097 711.182 74.133 846.078 73.0002H895.334" stroke="url(#paint15_radial_16_12416)" stroke-width="1.2"/>
<path d="M895 73H920.931C936.685 73 952.416 71.4523 967.927 68.6885C1083.58 48.0803 1156.92 47.5829 1269.79 68.3351C1285.97 71.3082 1302.36 73 1318.8 73H1343.33" stroke="url(#paint16_radial_16_12416)" stroke-width="1.2"/>
<path d="M895 72.9997H944.615C1082.63 60.2312 1159.18 59.9624 1294.08 72.9997H1343.33" stroke="url(#paint17_radial_16_12416)" stroke-width="1.2"/>
<path d="M895 73H920.931C936.685 73 952.416 74.5477 967.927 77.3115C1083.58 97.9197 1156.92 98.4171 1269.79 77.6649C1285.97 74.6918 1302.36 73 1318.8 73H1343.33" stroke="url(#paint18_radial_16_12416)" stroke-width="1.2"/>
<path d="M895 73.0003H944.615C1082.63 85.7688 1159.18 86.0376 1294.08 73.0003H1343.33" stroke="url(#paint19_radial_16_12416)" stroke-width="1.2"/>
<path d="M895 73.0001H944.615C1082.63 73.8513 1159.18 73.8693 1294.08 73.0001H1343.33" stroke="url(#paint20_radial_16_12416)" stroke-width="1.2"/>
<defs>
<radialGradient id="paint0_radial_16_12416" cx="0" cy="0" r="1" gradientUnits="userSpaceOnUse" gradientTransform="translate(208.162 3609) rotate(-90) scale(7540 305.275)">
<stop stop-color="#00DFFF" stop-opacity="0.67"/>
<stop offset="1" stop-color="#FC576E"/>
</radialGradient>
<radialGradient id="paint1_radial_16_12416" cx="0" cy="0" r="1" gradientUnits="userSpaceOnUse" gradientTransform="translate(208.317 4969) rotate(-90) scale(10440 305.503)">
<stop stop-color="#00DFFF" stop-opacity="0.67"/>
<stop offset="1" stop-color="#FC576E"/>
</radialGradient>
<radialGradient id="paint2_radial_16_12416" cx="0" cy="0" r="1" gradientUnits="userSpaceOnUse" gradientTransform="translate(208.162 2564.27) rotate(-90) scale(5312.27 305.275)">
<stop stop-color="#00DFFF" stop-opacity="0.67"/>
<stop offset="1" stop-color="#FC576E"/>
</radialGradient>
<radialGradient id="paint3_radial_16_12416" cx="0" cy="0" r="1" gradientUnits="userSpaceOnUse" gradientTransform="translate(208.162 1278.45) rotate(-90) scale(2570.45 305.275)">
<stop stop-color="#00DFFF" stop-opacity="0.67"/>
<stop offset="1" stop-color="#FC576E"/>
</radialGradient>
<radialGradient id="paint4_radial_16_12416" cx="0" cy="0" r="1" gradientUnits="userSpaceOnUse" gradientTransform="translate(208.162 -3463) rotate(90) scale(7540 305.275)">
<stop stop-color="#00DFFF" stop-opacity="0.67"/>
<stop offset="1" stop-color="#FC576E"/>
</radialGradient>
<radialGradient id="paint5_radial_16_12416" cx="0" cy="0" r="1" gradientUnits="userSpaceOnUse" gradientTransform="translate(208.317 -4823) rotate(90) scale(10440 305.503)">
<stop stop-color="#00DFFF" stop-opacity="0.67"/>
<stop offset="1" stop-color="#FC576E"/>
</radialGradient>
<radialGradient id="paint6_radial_16_12416" cx="0" cy="0" r="1" gradientUnits="userSpaceOnUse" gradientTransform="translate(208.162 -2418.27) rotate(90) scale(5312.27 305.275)">
<stop stop-color="#00DFFF" stop-opacity="0.67"/>
<stop offset="1" stop-color="#FC576E"/>
</radialGradient>
<radialGradient id="paint7_radial_16_12416" cx="0" cy="0" r="1" gradientUnits="userSpaceOnUse" gradientTransform="translate(208.162 -1132.45) rotate(90) scale(2570.45 305.275)">
<stop stop-color="#00DFFF" stop-opacity="0.67"/>
<stop offset="1" stop-color="#FC576E"/>
</radialGradient>
<radialGradient id="paint8_radial_16_12416" cx="0" cy="0" r="1" gradientUnits="userSpaceOnUse" gradientTransform="translate(208.162 -7.36356) rotate(90) scale(171.364 305.275)">
<stop stop-color="#00DFFF" stop-opacity="0.67"/>
<stop offset="1" stop-color="#FC576E"/>
</radialGradient>
<radialGradient id="paint9_radial_16_12416" cx="0" cy="0" r="1" gradientUnits="userSpaceOnUse" gradientTransform="translate(655.317 2589) rotate(-90) scale(5365 305.503)">
<stop stop-color="#00DFFF" stop-opacity="0.67"/>
<stop offset="1" stop-color="#FC576E"/>
</radialGradient>
<radialGradient id="paint10_radial_16_12416" cx="0" cy="0" r="1" gradientUnits="userSpaceOnUse" gradientTransform="translate(655.317 1845.64) rotate(-90) scale(3779.89 305.503)">
<stop stop-color="#00DFFF" stop-opacity="0.67"/>
<stop offset="1" stop-color="#FC576E"/>
</radialGradient>
<radialGradient id="paint11_radial_16_12416" cx="0" cy="0" r="1" gradientUnits="userSpaceOnUse" gradientTransform="translate(655.317 930.727) rotate(-90) scale(1828.98 305.503)">
<stop stop-color="#00DFFF" stop-opacity="0.67"/>
<stop offset="1" stop-color="#FC576E"/>
</radialGradient>
<radialGradient id="paint12_radial_16_12416" cx="0" cy="0" r="1" gradientUnits="userSpaceOnUse" gradientTransform="translate(655.317 -2443) rotate(90) scale(5365 305.503)">
<stop stop-color="#00DFFF" stop-opacity="0.67"/>
<stop offset="1" stop-color="#FC576E"/>
</radialGradient>
<radialGradient id="paint13_radial_16_12416" cx="0" cy="0" r="1" gradientUnits="userSpaceOnUse" gradientTransform="translate(655.317 -1699.64) rotate(90) scale(3779.89 305.503)">
<stop stop-color="#00DFFF" stop-opacity="0.67"/>
<stop offset="1" stop-color="#FC576E"/>
</radialGradient>
<radialGradient id="paint14_radial_16_12416" cx="0" cy="0" r="1" gradientUnits="userSpaceOnUse" gradientTransform="translate(655.317 -784.727) rotate(90) scale(1828.98 305.503)">
<stop stop-color="#00DFFF" stop-opacity="0.67"/>
<stop offset="1" stop-color="#FC576E"/>
</radialGradient>
<radialGradient id="paint15_radial_16_12416" cx="0" cy="0" r="1" gradientUnits="userSpaceOnUse" gradientTransform="translate(655.317 15.8183) rotate(90) scale(121.932 305.503)">
<stop stop-color="#00DFFF" stop-opacity="0.67"/>
<stop offset="1" stop-color="#FC576E"/>
</radialGradient>
<radialGradient id="paint16_radial_16_12416" cx="0" cy="0" r="1" gradientUnits="userSpaceOnUse" gradientTransform="translate(1103.32 1433) rotate(-90) scale(2900 305.503)">
<stop stop-color="#00DFFF" stop-opacity="0.67"/>
<stop offset="1" stop-color="#FC576E"/>
</radialGradient>
<radialGradient id="paint17_radial_16_12416" cx="0" cy="0" r="1" gradientUnits="userSpaceOnUse" gradientTransform="translate(1103.32 731.064) rotate(-90) scale(1403.22 305.503)">
<stop stop-color="#00DFFF" stop-opacity="0.67"/>
<stop offset="1" stop-color="#FC576E"/>
</radialGradient>
<radialGradient id="paint18_radial_16_12416" cx="0" cy="0" r="1" gradientUnits="userSpaceOnUse" gradientTransform="translate(1103.32 -1287) rotate(90) scale(2900 305.503)">
<stop stop-color="#00DFFF" stop-opacity="0.67"/>
<stop offset="1" stop-color="#FC576E"/>
</radialGradient>
<radialGradient id="paint19_radial_16_12416" cx="0" cy="0" r="1" gradientUnits="userSpaceOnUse" gradientTransform="translate(1103.32 -585.064) rotate(90) scale(1403.22 305.503)">
<stop stop-color="#00DFFF" stop-opacity="0.67"/>
<stop offset="1" stop-color="#FC576E"/>
</radialGradient>
<radialGradient id="paint20_radial_16_12416" cx="0" cy="0" r="1" gradientUnits="userSpaceOnUse" gradientTransform="translate(1103.32 29.1292) rotate(90) scale(93.5483 305.503)">
<stop stop-color="#00DFFF" stop-opacity="0.67"/>
<stop offset="1" stop-color="#FC576E"/>
</radialGradient>
</defs>
</svg>
