<svg width="1008" height="1008" viewBox="0 0 1008 1008" fill="none" xmlns="http://www.w3.org/2000/svg">
<g opacity="0.1">
<path d="M394.999 143.779C458.426 124.561 525.82 122.531 590.29 137.898C792.312 185.737 917.315 388.297 869.476 590.298C821.637 792.299 619.076 917.323 417.075 869.484C369.012 858.159 323.654 837.464 283.599 808.587C243.544 779.709 209.578 743.214 183.645 701.192C157.713 659.17 140.323 612.446 132.472 563.695C124.62 514.944 126.461 465.122 137.889 417.083" stroke="white" stroke-width="1.5" stroke-linecap="round" stroke-linejoin="round"/>
<path d="M755.536 755.536C894.627 616.446 894.627 390.936 755.536 251.845C616.446 112.755 390.936 112.755 251.845 251.845C112.755 390.936 112.755 616.446 251.845 755.536C390.936 894.627 616.446 894.627 755.536 755.536Z" stroke="white" stroke-width="1.5" stroke-linecap="round" stroke-linejoin="round"/>
<path d="M757.168 724.662C725.642 760.929 686.697 790.004 642.966 809.923C599.235 829.841 551.737 840.138 503.683 840.118C318.167 840.118 167.256 689.207 167.256 503.691C167.349 414.494 202.824 328.976 265.896 265.904C328.968 202.832 414.486 167.357 503.683 167.264" stroke="white" stroke-width="1.5" stroke-linecap="round" stroke-linejoin="round"/>
<path d="M197.057 581.808C190.447 555.973 187.142 529.405 187.22 502.738C187.22 494.123 187.606 485.563 188.379 477.059C189.152 468.085 190.305 459.186 191.838 450.364C201.953 391.984 228.144 337.58 267.469 293.261C297.453 259.422 334.392 232.457 375.76 214.213V214.213C385.534 209.946 395.558 206.074 405.913 202.719C485.74 176.923 572.54 183.837 647.277 221.945C722.014 260.053 778.588 326.245 804.593 406.004C810.758 424.958 815.133 444.448 817.66 464.219C818.199 468.485 818.634 472.793 818.965 477.059C819.731 485.632 820.063 494.206 820.104 502.738C820.181 548.48 810.354 593.697 791.297 635.28C783.043 653.257 773.151 670.436 761.745 686.598C755.464 695.508 748.717 704.08 741.532 712.278V712.278C712.269 745.856 676.185 772.812 635.685 791.347" stroke="white" stroke-width="1.5" stroke-linecap="round" stroke-linejoin="round"/>
<path d="M790.615 679.184C825.44 622.361 842.571 556.461 839.827 489.872C837.083 423.283 814.589 359.016 775.207 305.252" stroke="white" stroke-width="1.5" stroke-miterlimit="10"/>
<path d="M528.348 188.18L459.53 298.314" stroke="white" stroke-width="1.5" stroke-linecap="round" stroke-linejoin="round"/>
<path d="M495.606 187.373L436.563 281.871" stroke="white" stroke-width="1.5" stroke-linecap="round" stroke-linejoin="round"/>
<path d="M559.247 192.633L498.05 290.59" stroke="white" stroke-width="1.5" stroke-linecap="round" stroke-linejoin="round"/>
<path d="M374.496 814.293L420.886 740.07L432.234 721.887" stroke="white" stroke-width="1.5" stroke-linecap="round" stroke-linejoin="round"/>
<path d="M348.36 802.075L387.108 740.07L398.954 721.1" stroke="white" stroke-width="1.5" stroke-linecap="round" stroke-linejoin="round"/>
<path d="M463.134 726.36L401.916 824.317" stroke="white" stroke-width="1.5" stroke-linecap="round" stroke-linejoin="round"/>
<path d="M467.254 838.151L521.12 751.916L539.862 721.887" stroke="white" stroke-width="1.5" stroke-linecap="round" stroke-linejoin="round"/>
<path d="M436.46 833.367L486.577 753.159L506.603 721.1" stroke="white" stroke-width="1.5" stroke-linecap="round" stroke-linejoin="round"/>
<path d="M570.243 726.34L499.189 840.035" stroke="white" stroke-width="1.5" stroke-linecap="round" stroke-linejoin="round"/>
<path d="M621.603 210.174L566.557 298.335" stroke="white" stroke-width="1.5" stroke-linecap="round" stroke-linejoin="round"/>
<path d="M594.37 200.627L543.59 281.85" stroke="white" stroke-width="1.5" stroke-linecap="round" stroke-linejoin="round"/>
<path d="M648.277 222.393L605.677 290.61" stroke="white" stroke-width="1.5" stroke-linecap="round" stroke-linejoin="round"/>
<path d="M604.145 406.107L615.598 424.704L631.378 450.364L647.801 477.058L663.623 502.738L680.046 529.433L695.868 555.113L712.291 581.807L728.071 607.487L744.535 634.202L760.316 659.841L769.594 674.897" stroke="white" stroke-width="1.5" stroke-linecap="round" stroke-linejoin="round"/>
<path d="M629.08 392.874L632.269 398.01L648.671 424.705L664.472 450.364L680.874 477.059L696.676 502.738L713.119 529.433L728.921 555.113L745.364 581.808L761.165 607.487L777.588 634.203L785.541 647.105" stroke="white" stroke-width="1.5" stroke-linecap="round" stroke-linejoin="round"/>
<path d="M751.577 700.163L593.956 444.068" stroke="white" stroke-width="1.5" stroke-linecap="round" stroke-linejoin="round"/>
<path d="M624.958 611.546L634.381 626.851L638.895 634.202L654.697 659.841L671.14 686.536L686.941 712.215L703.385 738.91L707.547 745.703" stroke="white" stroke-width="1.5" stroke-linecap="round" stroke-linejoin="round"/>
<path d="M649.665 598.126L655.422 607.487L671.865 634.202L687.625 659.841L704.089 686.535L719.87 712.215L728.527 726.256" stroke="white" stroke-width="1.5" stroke-linecap="round" stroke-linejoin="round"/>
<path d="M614.79 649.486L617.483 653.856L621.169 659.841L637.591 686.536L653.414 712.215L669.836 738.91L684.789 763.202" stroke="white" stroke-width="1.5" stroke-linecap="round" stroke-linejoin="round"/>
<path d="M448.161 673.924L439.484 659.841L423.724 634.203L407.28 607.487L391.479 581.807L375.036 555.113L359.234 529.433L342.832 502.738L326.989 477.058L310.587 450.364L294.786 424.705L278.363 398.01L262.541 372.33L246.118 345.635L237.876 332.236" stroke="white" stroke-width="1.5" stroke-linecap="round" stroke-linejoin="round"/>
<path d="M255.831 307.116L263.742 319.956L279.544 345.636L295.945 372.33L311.747 398.01L328.19 424.705L343.95 450.364L360.373 477.059L376.195 502.738L392.618 529.433L408.399 555.113L424.821 581.808L440.623 607.487L457.066 634.203L464.107 645.634" stroke="white" stroke-width="1.5" stroke-linecap="round" stroke-linejoin="round"/>
<path d="M221.68 360.402L229.011 372.33L244.813 398.01L261.256 424.705L277.058 450.364L293.48 477.059L309.261 502.739L325.704 529.433L341.506 555.113L357.928 581.808L373.75 607.488L390.173 634.203L405.954 659.841L422.377 686.536L430.143 699.148" stroke="white" stroke-width="1.5" stroke-linecap="round" stroke-linejoin="round"/>
<path d="M502.379 589.18L497.843 581.807L481.4 555.113L465.598 529.433L449.155 502.738L433.354 477.058L416.91 450.364L401.15 424.704L384.707 398.01L368.905 372.33L352.462 345.635L336.661 319.955L320.217 293.261L304.416 267.581L300.439 261.119" stroke="white" stroke-width="1.5" stroke-linecap="round" stroke-linejoin="round"/>
<path d="M323.157 243.724L337.675 267.581L353.29 293.261L369.526 319.956L385.141 345.635L398.312 367.256" stroke="white" stroke-width="1.5" stroke-linecap="round" stroke-linejoin="round"/>
<path d="M279.066 280.856L286.646 293.261L302.986 319.955L318.705 345.635L335.044 372.33L350.784 398.01L357.079 408.302" stroke="white" stroke-width="1.5" stroke-linecap="round" stroke-linejoin="round"/>
<path d="M569.188 240.866H529.115" stroke="white" stroke-width="1.5" stroke-linecap="round" stroke-linejoin="round"/>
<path d="M462.181 240.866H328.19" stroke="white" stroke-width="1.5" stroke-linecap="round" stroke-linejoin="round"/>
<path d="M678.803 240.866H636.7" stroke="white" stroke-width="1.5" stroke-linecap="round" stroke-linejoin="round"/>
<path d="M737.702 293.261H353.29" stroke="white" stroke-width="1.5" stroke-linecap="round" stroke-linejoin="round"/>
<path d="M302.986 319.956H263.742" stroke="white" stroke-width="1.5" stroke-linecap="round" stroke-linejoin="round"/>
<path d="M318.704 345.635H279.542" stroke="white" stroke-width="1.5" stroke-linecap="round" stroke-linejoin="round"/>
<path d="M776.842 345.635H385.141" stroke="white" stroke-width="1.5" stroke-linecap="round" stroke-linejoin="round"/>
<path d="M335.045 372.33H295.945" stroke="white" stroke-width="1.5" stroke-linecap="round" stroke-linejoin="round"/>
<path d="M384.707 398.01H801.611" stroke="white" stroke-width="1.5" stroke-linecap="round" stroke-linejoin="round"/>
<path d="M311.747 398.01H350.785" stroke="white" stroke-width="1.5" stroke-linecap="round" stroke-linejoin="round"/>
<path d="M244.814 398.01H205.9" stroke="white" stroke-width="1.5" stroke-linecap="round" stroke-linejoin="round"/>
<path d="M277.058 450.364H191.859" stroke="white" stroke-width="1.5" stroke-linecap="round" stroke-linejoin="round"/>
<path d="M343.95 450.364H597.828H631.378" stroke="white" stroke-width="1.5" stroke-linecap="round" stroke-linejoin="round"/>
<path d="M815.59 450.364H664.472" stroke="white" stroke-width="1.5" stroke-linecap="round" stroke-linejoin="round"/>
<path d="M309.262 502.739H187.22" stroke="white" stroke-width="1.5" stroke-linecap="round" stroke-linejoin="round"/>
<path d="M630.074 502.739H376.195" stroke="white" stroke-width="1.5" stroke-linecap="round" stroke-linejoin="round"/>
<path d="M820.147 502.739H696.676" stroke="white" stroke-width="1.5" stroke-linecap="round" stroke-linejoin="round"/>
<path d="M375.036 555.112H408.399H662.319" stroke="white" stroke-width="1.5" stroke-linecap="round" stroke-linejoin="round"/>
<path d="M815.59 555.112H728.92" stroke="white" stroke-width="1.5" stroke-linecap="round" stroke-linejoin="round"/>
<path d="M341.507 555.112H191.714" stroke="white" stroke-width="1.5" stroke-linecap="round" stroke-linejoin="round"/>
<path d="M184.403 607.508H371.866H443.563H479.473H550.735H586.376H590.994" stroke="white" stroke-width="1.5" stroke-linecap="round" stroke-linejoin="round"/>
<path d="M694.563 607.487H655.422" stroke="white" stroke-width="1.5" stroke-linecap="round" stroke-linejoin="round"/>
<path d="M801.611 607.487H761.165" stroke="white" stroke-width="1.5" stroke-linecap="round" stroke-linejoin="round"/>
<path d="M621.168 659.862H583.414H512.153H476.284H404.546H207.432" stroke="white" stroke-width="1.5" stroke-linecap="round" stroke-linejoin="round"/>
<path d="M726.767 659.841H687.625" stroke="white" stroke-width="1.5" stroke-linecap="round" stroke-linejoin="round"/>
<path d="M653.413 712.236H581.24H509.999H474.13H402.393H239.864" stroke="white" stroke-width="1.5" stroke-linecap="round" stroke-linejoin="round"/>
<path d="M371.763 764.611H293.335" stroke="white" stroke-width="1.5" stroke-linecap="round" stroke-linejoin="round"/>
<path d="M479.619 764.611H440.333" stroke="white" stroke-width="1.5" stroke-linecap="round" stroke-linejoin="round"/>
<path d="M682.78 764.611H546.324" stroke="white" stroke-width="1.5" stroke-linecap="round" stroke-linejoin="round"/>
<g opacity="0.5">
<path d="M477.319 934.077C481.233 934.305 483.346 933.663 483.532 932.503C483.532 930.826 480.84 930.867 475.58 930.08C468.207 929.003 464.811 927.16 465.039 923.515C465.287 919.228 469.678 916.743 477.464 917.302C482.481 917.494 487.317 919.222 491.319 922.252L488.13 925.669C484.943 923.363 481.128 922.084 477.195 922.003C473.26 921.776 471.189 922.397 471.127 923.557C471.065 924.716 474.275 925.255 480.177 926.083C486.535 926.953 489.621 929.252 489.414 932.793C489.165 936.811 484.837 939.255 477.568 938.799C473.128 938.806 468.792 937.454 465.142 934.926L468.083 931.488C470.945 932.993 474.092 933.875 477.319 934.077Z" fill="white"/>
<path d="M456.341 916.122L453.545 936.107L431.821 933.083L432.442 928.548L448.451 930.805L448.906 927.554L438.034 926.021L438.676 921.506L449.527 923.018L449.983 919.829L433.208 917.489L433.83 912.974L456.341 916.122Z" fill="white"/>
<path d="M424.841 911.318L420.492 931.033L399.079 926.332L400.052 921.88L415.833 925.338L416.537 922.128L405.83 919.767L406.803 915.315L417.51 917.676L418.214 914.528L401.647 910.883L402.62 906.43L424.841 911.318Z" fill="white"/>
<path d="M379.177 916.619C382.946 917.758 385.162 917.613 385.39 916.495C385.866 914.9 383.133 914.279 378.204 912.353C371.287 909.619 368.387 907.031 369.444 903.531C370.686 899.389 375.532 898.001 383.05 900.279C387.918 901.609 392.257 904.407 395.475 908.294L391.582 910.883C389.016 907.904 385.597 905.785 381.786 904.815C378.017 903.676 375.843 903.8 375.574 904.815C375.304 905.829 378.245 907.196 383.857 909.371C389.843 911.69 392.307 914.631 391.292 918.027C390.132 921.879 385.348 923.267 378.369 921.155C374.048 920.135 370.14 917.824 367.166 914.528L370.81 911.856C373.235 914.012 376.085 915.635 379.177 916.619Z" fill="white"/>
<path d="M344.613 887.17L345.275 891.892L356.831 896.406L360.518 893.383L366.047 895.454L348.278 910.178L342.065 907.797L338.979 885.016L344.613 887.17ZM346.973 904.607L352.772 899.72L346 897.069L346.973 904.607Z" fill="white"/>
<path d="M309.634 870.748L315.661 873.73L313.114 887.792L322.744 877.25L328.729 880.232L326.285 901.543L320.631 898.747L322.806 884.437H322.681L313.196 895.123L307.17 892.12L309.924 878.1L299.818 888.454L294.185 885.658L309.634 870.748Z" fill="white"/>
<path d="M256.494 849.334C257.281 848.138 258.349 847.154 259.606 846.468C260.863 845.782 262.269 845.415 263.7 845.399C266.609 845.362 269.455 846.239 271.839 847.905L284.037 856.044L272.813 872.84L261.195 865.073C254.692 860.724 253.097 854.574 256.494 849.334ZM261.464 852.731C261.046 853.408 260.768 854.162 260.646 854.948C260.524 855.734 260.561 856.537 260.754 857.309C260.947 858.081 261.292 858.806 261.77 859.443C262.247 860.079 262.847 860.614 263.535 861.014L270.617 865.736L276.83 856.52L269.748 851.778C269.142 851.276 268.441 850.902 267.688 850.678C266.934 850.454 266.143 850.384 265.361 850.473C264.58 850.562 263.825 850.808 263.141 851.196C262.457 851.584 261.858 852.106 261.381 852.731H261.464Z" fill="white"/>
<path d="M254.278 835.376L242.018 851.425L237.42 847.925L249.68 831.875L254.278 835.376Z" fill="white"/>
<path d="M221.329 811.663C225.196 812.032 228.834 813.662 231.684 816.302C234.598 818.718 236.63 822.032 237.462 825.725C237.758 827.125 237.725 828.575 237.364 829.96C237.003 831.346 236.324 832.628 235.382 833.705C234.439 834.782 233.259 835.625 231.934 836.166C230.609 836.708 229.176 836.934 227.749 836.825C223.989 836.499 220.439 834.949 217.643 832.414C214.233 829.721 212.005 825.807 211.43 821.5L217.332 823.82C217.855 825.761 218.961 827.496 220.5 828.79C224.497 832.29 228.784 832.559 231.062 829.95C233.34 827.34 232.45 823.074 228.681 819.761C225.471 816.986 222.592 815.991 219.879 816.799L227.19 823.178L224.352 826.408L212.486 816.054L213.501 814.894C214.457 813.774 215.665 812.897 217.026 812.336C218.387 811.774 219.861 811.543 221.329 811.663Z" fill="white"/>
<path d="M213.583 800.397L199.376 814.749L195.234 810.607L209.441 796.255L213.583 800.397Z" fill="white"/>
<path d="M181.607 789.483L193.225 779.128L197.181 783.27L185.563 793.625L192.004 800.77L188.607 803.814L171.895 785.176L175.27 782.131L181.607 789.483Z" fill="white"/>
<path d="M172.019 753.262L170.196 757.673L177.859 767.427L182.684 766.703L186.35 771.383L163.569 775.049L159.427 769.892L168.394 748.603L172.019 753.262ZM165.184 769.478L172.681 768.235L168.187 762.561L165.184 769.478Z" fill="white"/>
<path d="M164.439 742.907L147.685 754.152L144.454 749.369L157.418 740.65L148.762 727.768L152.552 725.221L164.439 742.907Z" fill="white"/>
<path d="M120.762 700.846L134.596 693.577L137.289 698.692L123.455 705.961L127.928 714.473L123.89 716.544L112.271 694.488L116.413 692.417L120.762 700.846Z" fill="white"/>
<path d="M115.358 658.205C118.546 660.201 121.047 663.123 122.528 666.58C124.008 670.037 124.397 673.864 123.642 677.548C123.288 678.936 122.618 680.224 121.685 681.311C120.751 682.398 119.58 683.255 118.262 683.816C116.944 684.377 115.514 684.626 114.084 684.545C112.654 684.463 111.261 684.053 110.015 683.347C106.833 681.361 104.334 678.45 102.853 675.004C101.373 671.558 100.981 667.741 101.731 664.066C102.081 662.679 102.744 661.39 103.671 660.3C104.599 659.211 105.764 658.349 107.078 657.783C108.391 657.216 109.818 656.959 111.247 657.033C112.676 657.106 114.068 657.507 115.317 658.205H115.358ZM107.075 673.199C109.146 677.859 112.666 679.805 115.98 678.397C119.293 676.989 120.412 673.075 118.403 668.353C116.394 663.631 112.873 661.788 109.498 663.238C106.122 664.687 105.066 668.622 107.033 673.199H107.075Z" fill="white"/>
<path d="M106.991 626.043L101.213 637.806L105.666 641.244L111.361 639.38L113.162 644.868L93.9853 651.081L92.1835 645.593L100.467 642.901L88.2901 633.478L85.7222 625.65L97.071 634.43L104.692 618.712L106.991 626.043Z" fill="white"/>
<path d="M102.931 612.313L83.3195 617.076L78.1421 595.766L82.5738 594.689L86.3845 610.387L89.5737 609.6L86.985 598.955L91.4376 597.878L94.0056 608.523L97.1327 607.777L93.1358 591.21L97.5883 590.133L102.931 612.313Z" fill="white"/>
<path d="M92.8465 562.734L81.6633 577.231L94.8347 575.16L95.7251 580.876L75.7818 584.003L74.7463 577.376L85.9296 562.713L72.7582 564.784L71.8677 559.089L91.811 555.962L92.8465 562.734Z" fill="white"/>
<path d="M78.7843 505.017C80.2173 504.958 81.6427 505.252 82.9354 505.873C84.2281 506.494 85.3485 507.423 86.1983 508.579C87.9191 510.908 88.8677 513.718 88.9112 516.614L89.429 531.276L69.2579 532.001L68.7609 518.022C68.4916 510.215 72.4886 505.244 78.7843 505.017ZM78.9293 511.022C78.1238 511.063 77.3349 511.267 76.6109 511.623C75.8868 511.978 75.2427 512.477 74.7176 513.089C74.1926 513.701 73.7977 514.414 73.5569 515.184C73.3161 515.954 73.2345 516.764 73.317 517.567L73.6069 526.057L84.6658 525.664L84.3552 517.132C84.4348 515.605 83.9101 514.108 82.8948 512.965C81.8794 511.821 80.455 511.124 78.9293 511.022Z" fill="white"/>
<path d="M88.6628 495.407L68.4917 494.475L69.4858 472.564L74.0419 472.771L73.3171 488.925L76.5892 489.07L77.0862 478.115L81.6424 478.322L81.2074 489.194L84.4381 489.339L85.2043 472.419L89.7605 472.626L88.6628 495.407Z" fill="white"/>
<path d="M80.4211 441.686C79.1785 442.599 78.134 443.754 77.3508 445.081C76.5677 446.409 76.0622 447.882 75.865 449.411C75.2023 454.671 77.2319 458.13 80.8561 458.565C84.4802 459 87.3382 456.08 87.9802 450.985C88.1981 449.415 88.076 447.817 87.6222 446.298C87.1684 444.78 86.3935 443.376 85.35 442.183L88.4565 437.648C90.206 439.465 91.4949 441.675 92.2155 444.093C92.9361 446.51 93.0674 449.065 92.5984 451.544C92.2392 455.296 90.6438 458.821 88.063 461.568C87.0634 462.603 85.8336 463.389 84.4734 463.86C83.1132 464.332 81.6611 464.476 80.2348 464.28C78.8171 464.114 77.4587 463.614 76.271 462.822C75.0832 462.031 74.0996 460.969 73.4005 459.724C71.5723 456.436 70.8808 452.636 71.4332 448.914C71.6716 446.326 72.5157 443.83 73.8972 441.628C75.2787 439.426 77.1588 437.58 79.3856 436.24L80.4211 441.686Z" fill="white"/>
<path d="M95.1863 429.612L75.4087 425.47L79.8612 403.995L84.3345 404.927L81.0416 420.852L84.2723 421.515L86.4883 410.787L90.9616 411.719L88.7249 422.447L91.8934 423.11L95.3313 406.542L99.7838 407.474L95.1863 429.612Z" fill="white"/>
<path d="M107.301 380.428L90.92 388.836L103.698 392.626L102.062 398.155L82.6982 392.439L84.6036 386.019L100.985 377.549L88.2071 373.78L89.8431 368.23L109.207 373.945L107.301 380.428Z" fill="white"/>
<path d="M102.829 346.298L117.325 351.931L115.255 357.315L100.758 351.682L97.2994 360.65L93.0332 359.014L102.042 335.715L106.287 337.351L102.829 346.298Z" fill="white"/>
<path d="M132.484 317.823L124.553 319.293L120.721 327.266L126.624 330.083L124.118 335.302L105.914 326.583L113.245 311.258C115.316 306.888 119.251 305.211 122.854 306.95C124.095 307.479 125.13 308.398 125.803 309.568C126.475 310.737 126.749 312.094 126.582 313.432L135.322 311.92L132.484 317.823ZM120.307 312.065C119.148 311.506 117.926 312.065 117.118 313.743L112.52 323.331L116.662 325.402L121.26 315.772C121.475 315.477 121.621 315.137 121.689 314.778C121.758 314.419 121.746 314.049 121.655 313.695C121.564 313.341 121.396 313.011 121.163 312.73C120.93 312.448 120.638 312.221 120.307 312.065Z" fill="white"/>
<path d="M149.093 287.856H144.33L138.117 298.583L140.54 302.725L137.558 307.861L125.733 288.021L129.046 282.347L152.138 282.823L149.093 287.856ZM131.49 287.483L135.425 294.006L139.091 287.794L131.49 287.483Z" fill="white"/>
<path d="M155.928 277.004L139.36 265.552L142.632 260.788L155.513 269.652L164.315 256.854L168.063 259.442L155.928 277.004Z" fill="white"/>
<path d="M188.338 213.467C191.589 216.262 191.569 220.239 188.089 224.256L180.965 232.54L185.894 236.806L182.125 241.176L166.841 227.984L177.942 215.144C181.11 211.437 185.314 210.837 188.338 213.467ZM184.527 217.609C183.533 216.759 182.229 217.008 181.027 218.396L174.069 226.452L177.507 229.413L184.486 221.336C184.736 221.107 184.937 220.828 185.075 220.518C185.214 220.208 185.287 219.873 185.291 219.533C185.295 219.194 185.229 218.857 185.098 218.544C184.967 218.23 184.772 217.947 184.527 217.712V217.609Z" fill="white"/>
<path d="M204.223 216.242L190.037 201.891L205.631 186.483L208.841 189.713L197.347 201.062L199.646 203.402L207.453 195.698L210.663 198.95L202.856 206.654L205.113 208.932L217.166 197.044L220.376 200.275L204.223 216.242Z" fill="white"/>
<path d="M227.169 194.104L214.101 178.696L230.834 164.51L233.775 167.989L221.474 178.551L223.545 181.057L231.828 173.953L234.769 177.432L226.485 184.536L228.556 186.979L241.479 176.024L244.42 179.503L227.169 194.104Z" fill="white"/>
<path d="M267.594 162.294L259.911 159.767L252.745 164.924L256.577 170.225L251.876 173.601L240.092 157.22L253.864 147.3C257.799 144.463 262.023 144.877 264.363 148.128C265.199 149.188 265.667 150.49 265.697 151.839C265.727 153.188 265.317 154.509 264.529 155.605L272.917 158.442L267.594 162.294ZM259.662 151.38C258.917 150.344 257.591 150.261 256.08 151.38L247.444 157.593L250.095 161.258L258.751 155.045C259.074 154.887 259.358 154.66 259.585 154.381C259.811 154.101 259.974 153.776 260.063 153.428C260.152 153.079 260.164 152.716 260.098 152.362C260.032 152.008 259.891 151.673 259.683 151.38H259.662Z" fill="white"/>
<path d="M296.401 126.176L304.042 139.824L298.989 142.64L291.368 128.993L282.96 133.694L280.744 129.697L302.551 117.52L304.767 121.496L296.401 126.176Z" fill="white"/>
<path d="M338.897 119.632C337.056 122.923 334.18 125.515 330.716 127.005C327.33 128.68 323.482 129.176 319.782 128.413C318.379 128.105 317.066 127.477 315.947 126.577C314.827 125.677 313.931 124.531 313.329 123.226C312.728 121.922 312.436 120.497 312.478 119.061C312.519 117.625 312.893 116.219 313.569 114.952C315.469 111.72 318.314 109.148 321.72 107.581C325.127 106.015 328.931 105.53 332.622 106.191C334.02 106.504 335.327 107.134 336.441 108.033C337.556 108.932 338.449 110.076 339.05 111.376C339.651 112.677 339.944 114.098 339.906 115.529C339.869 116.961 339.502 118.365 338.835 119.632H338.897ZM323.696 111.7C319.098 113.771 317.234 117.458 318.746 120.73C320.258 124.002 324.172 125.017 328.832 122.801C333.491 120.585 335.252 117.105 333.719 113.771C332.187 110.437 328.231 109.608 323.696 111.7Z" fill="white"/>
<path d="M385.245 91.715C386.55 95.8569 384.458 99.1704 379.405 100.806L369.05 104.141L371.121 110.354L365.633 112.114L359.42 92.8954L375.574 87.6973C380.13 86.2269 384.003 87.9044 385.245 91.715ZM379.778 93.3717C379.364 92.1084 378.121 91.6528 376.361 92.212L366.234 95.4841L367.621 99.7916L377.79 96.5196C378.136 96.4602 378.465 96.3287 378.757 96.1338C379.049 95.9389 379.297 95.6847 379.484 95.3879C379.672 95.0912 379.795 94.7584 379.845 94.4111C379.896 94.0638 379.873 93.7096 379.778 93.3717Z" fill="white"/>
<path d="M397.381 102.319L392.742 82.6862L414.093 77.6331L415.129 82.0648L399.41 85.7926L400.176 88.9819L410.842 86.4554L411.898 90.9078L401.233 93.4345L401.957 96.5615L418.525 92.6475L419.581 97.1L397.381 102.319Z" fill="white"/>
<path d="M428.467 95.4016L425.339 75.4583L447.002 72.0828L447.706 76.5767L431.759 79.0619L432.256 82.3133L443.087 80.6151L443.792 85.1298L432.96 86.828L433.458 89.9965L450.191 87.387L450.895 91.9017L428.467 95.4016Z" fill="white"/>
<path d="M479.536 89.3545L474.296 83.1416L465.495 83.8043L465.971 90.3071L460.214 90.742L458.702 70.6123L475.622 69.3491C480.468 68.9763 483.906 71.5236 484.154 75.5619C484.315 76.8997 484.036 78.2533 483.359 79.4188C482.683 80.5843 481.647 81.4984 480.406 82.0233L486.08 88.8367L479.536 89.3545ZM478.459 75.914C478.355 74.63 477.258 73.843 475.415 73.988L464.811 74.7957L465.143 79.3104L475.788 78.5027C477.548 78.3784 478.563 77.3222 478.459 75.914Z" fill="white"/>
<path d="M535.41 73.6566C531.476 73.3874 529.363 74.0088 529.197 75.1685C529.073 76.8253 531.869 76.8459 537.109 77.6743C544.46 78.8547 547.857 80.7394 547.588 84.3636C547.256 88.6711 542.845 91.0942 535.017 90.5764C529.997 90.3095 525.178 88.5177 521.204 85.4404L524.455 82.0647C527.615 84.3931 531.405 85.7139 535.328 85.8546C539.262 86.1445 541.333 85.544 541.437 84.3843C541.54 83.2245 538.289 82.6446 532.407 81.7541C526.05 80.8015 523.005 78.4613 523.254 74.92C523.564 70.9023 527.914 68.5207 535.183 69.0591C539.643 69.0862 543.984 70.4973 547.608 73.0975L544.647 76.4938C541.799 74.9153 538.653 73.9489 535.41 73.6566Z" fill="white"/>
<path d="M556.203 91.8811L559.268 71.917L580.93 75.2305L580.246 79.7451L564.279 77.3014L563.782 80.5528L574.634 82.2096L573.93 86.7243L563.099 85.0675L562.623 88.2361L579.356 90.8041L578.672 95.3188L556.203 91.8811Z" fill="white"/>
<path d="M587.639 97.0791L592.216 77.4258L613.568 82.3961L612.532 86.8486L596.876 83.2866L596.13 86.4759L606.796 88.961L605.76 93.4136L595.095 90.9285L594.349 94.0556L610.917 97.9076L609.881 102.339L587.639 97.0791Z" fill="white"/>
<path d="M633.387 92.3575C629.618 91.1771 627.422 91.3014 627.07 92.3575C626.553 93.9522 629.286 94.6149 634.195 96.6444C641.07 99.4817 643.928 102.091 642.83 105.57C641.546 109.712 636.617 111.038 629.183 108.656C624.359 107.251 620.081 104.403 616.923 100.496L620.857 97.9492C623.386 100.962 626.775 103.13 630.57 104.162C634.34 105.363 636.493 105.239 636.783 104.162C637.073 103.085 634.132 101.76 628.499 99.5231C622.556 97.1208 620.216 94.1592 621.189 90.7629C622.39 86.9109 627.195 85.6062 634.132 87.8014C638.449 88.8705 642.331 91.2422 645.253 94.5942L641.567 97.2035C639.207 95.0372 636.421 93.3868 633.387 92.3575Z" fill="white"/>
<path d="M667.579 122.262L666.978 117.519L655.484 112.839L651.756 115.842L646.248 113.605L664.224 99.1084L670.312 101.594L673.087 124.519L667.579 122.262ZM665.508 104.783L659.626 109.587L666.377 112.321L665.508 104.783Z" fill="white"/>
<path d="M702.329 139.203L696.344 136.138L699.078 122.117L689.303 132.472L683.359 129.428L686.093 108.138L691.685 111.017L689.344 125.306H689.448L699.078 114.745L705.063 117.81L702.122 131.809L712.353 121.454L717.944 124.333L702.329 139.203Z" fill="white"/>
<path d="M755.18 161.175C754.376 162.363 753.293 163.336 752.026 164.007C750.758 164.679 749.345 165.029 747.911 165.027C745.012 165.025 742.187 164.112 739.834 162.418L727.719 154.134L739.151 137.566L750.686 145.477C757.127 149.806 758.742 155.977 755.18 161.175ZM750.272 157.717C750.716 157.044 751.019 156.288 751.162 155.494C751.306 154.701 751.287 153.887 751.107 153.101C750.927 152.315 750.589 151.574 750.115 150.922C749.64 150.27 749.039 149.721 748.346 149.308L741.325 144.504L735.112 153.616L742.154 158.462C743.339 159.416 744.849 159.871 746.364 159.732C747.879 159.593 749.28 158.87 750.272 157.717Z" fill="white"/>
<path d="M757.23 175.175L769.656 159.27L774.191 162.832L761.765 178.737L757.23 175.175Z" fill="white"/>
<path d="M789.889 199.26C786.012 198.839 782.377 197.167 779.535 194.497C776.652 192.04 774.664 188.697 773.881 184.991C773.606 183.587 773.661 182.139 774.042 180.76C774.422 179.382 775.118 178.11 776.074 177.046C777.029 175.982 778.219 175.154 779.549 174.628C780.88 174.102 782.314 173.892 783.739 174.015C787.494 174.384 791.023 175.977 793.783 178.55C797.161 181.279 799.345 185.216 799.871 189.527L793.99 187.145C793.491 185.196 792.407 183.447 790.884 182.133C786.928 178.592 782.6 178.281 780.321 180.849C778.043 183.417 778.851 187.725 782.6 191.059C785.768 193.876 788.626 194.911 791.36 194.124L784.132 187.683L786.99 184.473L798.753 194.973L797.718 196.112C796.753 197.217 795.542 198.078 794.181 198.625C792.821 199.172 791.35 199.39 789.889 199.26Z" fill="white"/>
<path d="M797.489 210.65L811.986 196.485L816.128 200.627L801.631 214.792L797.489 210.65Z" fill="white"/>
<path d="M829.32 222.041L817.578 232.395L813.767 228.046L825.51 217.692L819.172 210.443L822.61 207.44L839.178 226.224L835.74 229.227L829.32 222.041Z" fill="white"/>
<path d="M838.433 258.283L840.317 253.892L832.779 244.055L828.037 244.739L824.433 240.017L847.214 236.62L851.211 241.839L841.995 263.004L838.433 258.283ZM845.474 242.15L837.957 243.31L842.388 249.088L845.474 242.15Z" fill="white"/>
<path d="M845.929 268.782L862.828 257.744L865.997 262.569L852.908 271.122L861.399 284.128L857.568 286.613L845.929 268.782Z" fill="white"/>
<path d="M889.067 311.402L875.13 318.485L872.521 313.349L886.437 306.246L882.088 297.672L886.23 295.601L897.558 317.864L893.416 319.935L889.067 311.402Z" fill="white"/>
<path d="M893.913 354.064C890.702 352.088 888.228 349.113 886.872 345.594C885.334 342.146 884.985 338.286 885.878 334.618C886.246 333.233 886.929 331.952 887.875 330.875C888.82 329.797 890.001 328.953 891.326 328.408C892.651 327.863 894.085 327.631 895.514 327.731C896.944 327.831 898.331 328.26 899.567 328.985C902.706 331.024 905.149 333.972 906.57 337.435C907.99 340.899 908.322 344.713 907.52 348.369C907.174 349.761 906.501 351.051 905.558 352.131C904.614 353.212 903.427 354.052 902.094 354.582C900.784 355.139 899.362 355.382 897.942 355.292C896.522 355.202 895.142 354.782 893.913 354.064ZM902.425 339.174C900.499 334.494 896.937 332.485 893.603 333.872C890.269 335.26 889.088 339.133 891.056 343.875C893.023 348.618 896.502 350.502 899.898 349.094C903.295 347.686 904.33 343.772 902.425 339.174Z" fill="white"/>
<path d="M901.887 386.33L907.81 374.65L903.378 371.15L897.662 372.951L895.922 367.443L915.182 361.375L916.922 366.883L908.638 369.472L920.691 379.04L923.176 386.91L911.931 377.984L904.123 393.619L901.887 386.33Z" fill="white"/>
<path d="M905.738 400.143L925.433 395.649L930.321 417.021L925.889 418.036L922.264 402.297L919.075 403.022L921.519 413.708L917.066 414.743L914.623 404.037L911.496 404.761L915.265 421.329L910.812 422.344L905.738 400.143Z" fill="white"/>
<path d="M915.203 449.846L926.593 435.35L913.401 437.255L912.594 431.539L932.558 428.66L933.511 435.287L922.141 449.784L935.333 447.879L936.141 453.615L916.177 456.473L915.203 449.846Z" fill="white"/>
<path d="M928.581 507.833C927.145 507.875 925.72 507.565 924.431 506.93C923.143 506.294 922.029 505.353 921.188 504.188C919.501 501.832 918.589 499.009 918.578 496.111L918.247 481.428L938.439 480.973L938.749 494.952C938.936 502.676 934.877 507.605 928.581 507.833ZM928.581 501.827C929.388 501.797 930.18 501.602 930.909 501.256C931.639 500.909 932.289 500.417 932.822 499.811C933.355 499.204 933.759 498.495 934.009 497.728C934.259 496.96 934.35 496.149 934.276 495.345L934.09 486.854L923.031 487.103L923.217 495.635C923.141 497.137 923.648 498.611 924.632 499.749C925.615 500.888 927.001 501.602 928.498 501.744L928.581 501.827Z" fill="white"/>
<path d="M918.558 517.214L938.708 518.374L937.445 540.264L932.889 539.995L933.821 523.883L930.549 523.696L929.907 534.631L925.371 534.362L925.993 523.427L922.782 523.241L921.809 540.14L917.253 539.891L918.558 517.214Z" fill="white"/>
<path d="M926.159 571.018C927.416 570.125 928.478 568.985 929.279 567.667C930.08 566.35 930.604 564.883 930.819 563.355C931.543 558.116 929.576 554.637 925.952 554.14C922.328 553.643 919.428 556.542 918.745 561.616C918.503 563.185 918.603 564.788 919.039 566.314C919.475 567.84 920.237 569.254 921.271 570.459L918.103 574.953C916.396 573.104 915.154 570.876 914.477 568.453C913.8 566.03 913.708 563.481 914.209 561.015C914.631 557.27 916.276 553.769 918.89 551.054C919.899 550.029 921.136 549.259 922.5 548.805C923.865 548.351 925.317 548.228 926.739 548.444C928.158 548.623 929.514 549.137 930.695 549.943C931.877 550.75 932.849 551.826 933.532 553.083C935.306 556.39 935.946 560.188 935.354 563.894C935.093 566.482 934.221 568.972 932.81 571.157C931.398 573.343 929.488 575.162 927.236 576.465L926.159 571.018Z" fill="white"/>
<path d="M911.227 582.905L930.942 587.254L926.221 608.647L921.768 607.674L925.247 591.914L922.037 591.189L919.676 601.896L915.224 600.923L917.585 590.216L914.437 589.512L910.792 606.079L906.339 605.085L911.227 582.905Z" fill="white"/>
<path d="M898.512 631.925L915.079 623.641L902.343 619.727L904.041 614.197L923.342 620.141L921.375 626.54L904.807 634.824L917.543 638.759L915.845 644.267L896.544 638.324L898.512 631.925Z" fill="white"/>
<path d="M902.57 666.199L888.074 660.38L890.145 655.016L904.641 660.836L908.224 651.889L912.47 653.587L903.171 676.803L899.029 675.105L902.57 666.199Z" fill="white"/>
<path d="M872.499 694.219L880.472 692.852L884.386 684.92L878.546 682.021L881.094 676.844L899.194 685.811L891.655 701.012C889.584 705.381 885.588 706.997 882.005 705.154C880.768 704.608 879.743 703.674 879.085 702.493C878.427 701.312 878.173 699.948 878.36 698.609L869.6 700.038L872.499 694.219ZM884.635 700.142C885.774 700.701 886.996 700.142 887.824 698.506L892.546 688.959L888.404 686.888L883.661 696.455C883.462 696.758 883.331 697.1 883.278 697.458C883.224 697.816 883.25 698.181 883.353 698.528C883.455 698.876 883.632 699.196 883.872 699.468C884.111 699.739 884.407 699.955 884.738 700.1L884.635 700.142Z" fill="white"/>
<path d="M855.538 723.896L860.322 724.041L866.701 713.396L864.319 709.254L867.384 704.16L878.94 724.144L875.564 729.777L852.494 728.99L855.538 723.896ZM873.142 724.496L869.29 717.952L865.541 724.165L873.142 724.496Z" fill="white"/>
<path d="M848.581 734.707L865.148 746.366L861.835 751.088L849.057 742.058L840.11 754.753L836.383 752.123L848.581 734.707Z" fill="white"/>
<path d="M815.341 797.767C812.131 794.909 812.214 790.954 815.734 786.977L822.962 778.838L818.074 774.489L821.906 770.182L837.003 783.56L825.758 796.255C822.61 799.983 818.343 800.501 815.341 797.767ZM819.193 793.625C820.187 794.495 821.491 794.246 822.713 792.879L829.775 784.927L826.379 781.924L819.296 789.897C819.025 790.123 818.805 790.404 818.651 790.721C818.497 791.039 818.412 791.385 818.403 791.738C818.393 792.09 818.458 792.441 818.594 792.766C818.731 793.092 818.934 793.385 819.193 793.625Z" fill="white"/>
<path d="M799.519 794.867L813.519 809.364L797.759 824.689L794.59 821.417L806.229 810.192L803.951 807.831L796.04 815.453L792.871 812.16L800.782 804.539L798.546 802.24L786.348 813.982L783.179 810.71L799.519 794.867Z" fill="white"/>
<path d="M776.283 816.737L789.144 832.31L772.245 846.289L769.325 842.769L781.751 832.414L779.68 829.887L771.21 836.866L768.31 833.346L776.76 826.367L774.689 823.882L761.642 834.671L758.722 831.151L776.283 816.737Z" fill="white"/>
<path d="M735.423 848.029L743.065 850.659L750.293 845.585L746.544 840.242L751.287 836.928L762.864 853.496L748.967 863.25C744.991 866.025 740.684 865.57 738.488 862.298C737.672 861.219 737.23 859.902 737.23 858.549C737.23 857.196 737.672 855.88 738.488 854.801L730.205 851.839L735.423 848.029ZM743.21 859.046C743.956 860.102 745.281 860.206 746.814 859.15L755.512 852.937L752.923 849.23L744.184 855.339C743.854 855.496 743.562 855.723 743.329 856.004C743.096 856.285 742.928 856.613 742.835 856.966C742.742 857.319 742.728 857.689 742.793 858.048C742.857 858.407 743 858.748 743.21 859.046Z" fill="white"/>
<path d="M706.243 883.774L698.787 870.023L703.861 867.269L711.317 880.999L719.766 876.422L721.961 880.419L699.988 892.348L697.917 888.351L706.243 883.774Z" fill="white"/>
<path d="M663.644 889.78C665.599 886.57 668.485 884.032 671.919 882.504C675.352 880.976 679.169 880.531 682.862 881.227C684.257 881.559 685.556 882.208 686.658 883.126C687.76 884.043 688.635 885.203 689.214 886.514C689.794 887.825 690.062 889.253 689.999 890.685C689.935 892.117 689.541 893.516 688.848 894.77C686.902 897.973 684.026 900.506 680.603 902.031C677.18 903.555 673.373 903.999 669.691 903.303C668.299 902.97 667.001 902.322 665.899 901.408C664.797 900.493 663.92 899.338 663.335 898.031C662.751 896.724 662.474 895.3 662.528 893.869C662.582 892.439 662.963 891.039 663.644 889.78ZM678.762 897.898C683.38 895.827 685.285 892.223 683.815 888.93C682.345 885.638 678.431 884.581 673.75 886.652C669.07 888.723 667.268 892.265 668.759 895.62C670.25 898.975 674.185 899.927 678.762 897.898Z" fill="white"/>
<path d="M616.984 917.137C615.7 912.995 617.833 909.681 622.928 908.107L633.283 904.897L631.357 898.684L636.886 896.986L642.83 916.267L626.593 921.279C622.017 922.687 618.165 920.947 616.984 917.137ZM622.472 915.542C622.845 916.785 624.108 917.261 625.848 916.722L636.016 913.595L634.691 909.267L624.481 912.415C624.134 912.469 623.802 912.596 623.508 912.788C623.214 912.98 622.964 913.231 622.774 913.527C622.584 913.822 622.459 914.155 622.407 914.502C622.355 914.85 622.377 915.204 622.472 915.542Z" fill="white"/>
<path d="M604.994 906.347L609.384 926.042L587.97 930.826L586.976 926.373L602.736 922.853L602.032 919.643L591.325 922.024L590.331 917.572L601.038 915.19L600.334 912.042L583.766 915.728L582.772 911.276L604.994 906.347Z" fill="white"/>
<path d="M573.806 912.891L576.664 932.876L554.96 935.962L554.318 931.447L570.306 929.169L569.85 925.918L558.998 927.471L558.336 922.956L569.188 921.403L568.732 918.214L551.978 920.616L551.336 916.101L573.806 912.891Z" fill="white"/>
<path d="M522.631 918.297L527.788 924.509L536.59 923.971L536.196 917.448L541.953 917.075L543.217 937.225L526.276 938.302C521.43 938.592 517.992 936.003 517.827 932.089C517.682 930.748 517.977 929.397 518.669 928.238C519.36 927.08 520.409 926.178 521.658 925.669L516.066 918.794L522.631 918.297ZM523.543 931.758C523.543 933.042 524.723 933.829 526.545 933.705L537.169 933.042L536.88 928.506L526.235 929.19C524.392 929.293 523.439 930.308 523.543 931.758Z" fill="white"/>
</g>
<path d="M598.719 684.278L563.824 740.07H492.583L527.437 684.278L355.299 408.799L390.94 351.786L598.719 684.278Z" fill="white"/>
<path d="M491.567 684.341L456.755 740.07H384.975L419.829 684.278L355.091 580.648L390.94 523.282L491.567 684.341Z" fill="white"/>
<path d="M652.067 598.582L650.969 600.28L646.496 607.508L634.381 626.871L629.783 634.203L617.482 653.877L616.426 655.575L603.089 634.203L586.376 607.508L570.326 581.828L553.655 555.133L537.605 529.454L520.934 502.759L504.884 477.079L488.171 450.364L472.163 424.725L455.491 398.031L439.441 372.351L422.75 345.656L408.667 323.103L410.634 319.976L427.306 293.261L443.397 267.56L443.542 267.291H514.762L514.617 267.56L498.567 293.261L481.896 319.976L479.929 323.103L494.011 345.656L510.724 372.351L526.732 398.031L543.445 424.725L559.453 450.364L576.166 477.079L592.175 502.759L608.887 529.454L624.937 555.133L641.608 581.828L652.067 598.582Z" fill="white"/>
<path d="M515.798 323.041L550.611 267.312H622.39L587.536 323.103L652.274 426.734L616.426 484.099L515.798 323.041Z" fill="white"/>
<path d="M340.451 194.497C344.488 194.497 347.761 191.224 347.761 187.186C347.761 183.149 344.488 179.876 340.451 179.876C336.413 179.876 333.14 183.149 333.14 187.186C333.14 191.224 336.413 194.497 340.451 194.497Z" fill="#1D1D1B" stroke="white" stroke-width="1.5" stroke-miterlimit="10"/>
<path d="M147.852 507.17C151.889 507.17 155.162 503.897 155.162 499.86C155.162 495.822 151.889 492.549 147.852 492.549C143.814 492.549 140.541 495.822 140.541 499.86C140.541 503.897 143.814 507.17 147.852 507.17Z" fill="#1D1D1B" stroke="white" stroke-width="1.5" stroke-miterlimit="10"/>
<path d="M179.371 652.613C183.408 652.613 186.681 649.34 186.681 645.303C186.681 641.265 183.408 637.992 179.371 637.992C175.333 637.992 172.06 641.265 172.06 645.303C172.06 649.34 175.333 652.613 179.371 652.613Z" fill="#1D1D1B" stroke="white" stroke-width="1.5" stroke-miterlimit="10"/>
<path d="M293.336 798.016C297.374 798.016 300.647 794.743 300.647 790.705C300.647 786.668 297.374 783.395 293.336 783.395C289.299 783.395 286.026 786.668 286.026 790.705C286.026 794.743 289.299 798.016 293.336 798.016Z" fill="#1D1D1B" stroke="white" stroke-width="1.5" stroke-miterlimit="10"/>
<path d="M840.11 511.001C844.148 511.001 847.421 507.728 847.421 503.691C847.421 499.653 844.148 496.38 840.11 496.38C836.073 496.38 832.8 499.653 832.8 503.691C832.8 507.728 836.073 511.001 840.11 511.001Z" fill="#1D1D1B" stroke="white" stroke-width="1.5" stroke-miterlimit="10"/>
<path d="M693.031 209.097C697.069 209.097 700.342 205.824 700.342 201.787C700.342 197.749 697.069 194.476 693.031 194.476C688.994 194.476 685.721 197.749 685.721 201.787C685.721 205.824 688.994 209.097 693.031 209.097Z" fill="#1D1D1B" stroke="white" stroke-width="1.5" stroke-miterlimit="10"/>
<path d="M778.851 737.212C782.888 737.212 786.161 733.939 786.161 729.902C786.161 725.864 782.888 722.591 778.851 722.591C774.814 722.591 771.541 725.864 771.541 729.902C771.541 733.939 774.814 737.212 778.851 737.212Z" fill="#1D1D1B" stroke="white" stroke-width="1.5" stroke-miterlimit="10"/>
</g>
</svg>
