<svg width="137" height="27" viewBox="0 0 137 27" fill="none" xmlns="http://www.w3.org/2000/svg">
<path d="M32.0624 10.7291C29.7002 10.7291 28.4616 11.1595 28.4616 11.7877C28.4616 12.7021 30.1332 12.5948 33.3011 12.8463C37.7482 13.1861 39.854 14.0837 39.854 16.0734C39.854 18.4231 37.3152 19.9299 32.6131 19.9299C29.4452 19.9299 26.7494 19.248 24.1322 17.6875L25.9228 15.7158C27.8311 16.8626 29.9775 17.3478 32.5934 17.3478C34.9478 17.3478 36.1747 16.9353 36.1747 16.3071C36.1747 15.5715 34.2271 15.4821 30.6655 15.2341C26.8279 14.9659 24.8999 13.8179 24.8999 11.8807C24.8999 9.67527 27.3982 8.2042 31.7668 8.2042C34.9151 8.2042 37.3558 8.68819 39.3426 9.90774L37.709 11.8807C35.8019 11.1011 33.9511 10.7291 32.0624 10.7291ZM44.0762 19.589V8.55468H57.22V11.0474H47.541V12.8415H54.1136V15.3343H47.5384V17.0915H57.2174V19.5842L44.0762 19.589ZM61.6868 19.589V8.55468H74.8306V11.0474H65.1516V12.8415H71.7229V15.3343H65.1503V17.0915H74.8293V19.5842L61.6868 19.589ZM86.1067 10.7291C83.7523 10.7291 82.5058 11.1595 82.5058 11.7877C82.5058 12.7021 84.1787 12.5948 87.3453 12.8463C91.7924 13.1861 93.8983 14.0837 93.8983 16.0734C93.8983 18.4231 91.3595 19.9299 86.6573 19.9299C83.4894 19.9299 80.7924 19.248 78.1764 17.6875L79.967 15.7158C81.8754 16.8626 84.0218 17.3478 86.6377 17.3478C88.9921 17.3478 90.2189 16.9353 90.2189 16.3071C90.2189 15.5715 88.2701 15.4821 84.7084 15.2341C80.8721 14.9659 78.9429 13.8179 78.9429 11.8807C78.9429 9.67527 81.4424 8.2042 85.8111 8.2042C88.9594 8.2042 91.3987 8.68819 93.3869 9.90774L91.7532 11.8807C89.8462 11.1011 87.9967 10.7291 86.1067 10.7291ZM109.602 19.589L108.205 17.312H100.766L99.3695 19.589H95.8079L102.518 8.55945H106.454L113.163 19.589H109.602ZM104.486 11.1774L102.302 14.8181H106.671L104.486 11.1774ZM133.369 8.55468L128.601 16.7386L123.799 8.55468H120.166L122.505 12.5721L120.058 16.7446L115.255 8.56064H111.625L118.329 19.589H122.31L124.306 15.6752L126.871 19.589H130.853L137 8.56064L133.369 8.55468ZM2.20132 4.73035L0.0117713 7.92166L10.5828 23.3406L8.44299 26.4651H12.8195L14.9606 23.3418L2.20132 4.73035ZM2.20132 14.3293L0 17.5409L3.97494 23.3406L1.83509 26.4651H6.24166L8.3802 23.3454L2.20132 14.3293ZM17.5949 17.6065L16.5747 16.1127L15.5898 14.675L14.563 13.1801L13.5807 11.7496L12.55 10.2523L11.5664 8.82171L10.541 7.32679L9.55738 5.89625L8.53193 4.40132L7.66736 3.14006L7.78769 2.96362L8.81184 1.46989L9.79674 0.0298031L9.8059 0.0154982H5.43071L5.42287 0.0298031L4.43404 1.46989L3.4112 2.96362L3.28956 3.14006L4.1489 4.38701L5.17566 5.88194L6.16057 7.31249L7.18471 8.80741L8.16831 10.238L9.19376 11.7329L10.18 13.1634L11.212 14.675L12.1982 16.1127L13.221 17.6065L14.2072 19.0442L15.2327 20.5379L16.0528 21.73L16.1182 21.6347L16.8729 20.5331L17.1554 20.1231L17.8983 19.0394L18.1743 18.6353L18.241 18.5387L17.5949 17.6065ZM16.0515 12.1358L18.2528 8.92543L14.2766 3.12456L16.4151 0H12.0072L9.86868 3.11979L16.0515 12.1358Z" fill="white"/>
</svg>
