<svg width="17" height="26" viewBox="0 0 17 26" fill="none" xmlns="http://www.w3.org/2000/svg">
<path fill-rule="evenodd" clip-rule="evenodd" d="M16.3335 18.2195L16.2733 18.313L16.0262 18.7099L15.3603 19.7754L15.1068 20.1787L14.4319 21.2595L14.373 21.3543L13.6393 20.1787L12.7198 18.7099L11.8376 17.2975L10.9207 15.83L10.0384 14.4176L9.12154 12.9488L8.23924 11.5364L7.31982 10.0689L6.43881 8.65772L5.52322 7.19022L4.63965 5.77779L3.7215 4.30901L2.94678 3.06945L3.05562 2.89658L3.97249 1.4278L4.85606 0.0140859L4.86502 0H8.78219L8.77451 0.0140859L7.89222 1.4278L6.97535 2.89658L6.86651 3.06945L7.64123 4.30901L8.55938 5.77779L9.44039 7.19022L10.3585 8.65772L11.2395 10.0689L12.159 11.5364L13.0387 12.9488L13.9581 14.4176L14.8404 15.83L15.7573 17.2975L16.3335 18.2195ZM11.4797 26L13.398 22.9331L1.97174 4.64575L0.0112305 7.78179L9.47825 22.9331L7.56129 26H11.4797ZM5.59083 25.9998L7.50652 22.9355L1.97203 14.078L0 17.2332L3.56118 22.9329L1.64421 25.9998H5.59083ZM10.7528 0.0012207L8.83838 3.06555L14.3729 11.923L16.3449 8.76779L12.7837 3.06939L14.7007 0.0012207H10.7528Z" fill="#808080"/>
</svg>
