<svg width="11" height="18" viewBox="0 0 11 18" fill="none" xmlns="http://www.w3.org/2000/svg">
<path fill-rule="evenodd" clip-rule="evenodd" d="M11.3078 12.6135L11.2662 12.6782L11.0951 12.953L10.6341 13.6906L10.4585 13.9699L9.99133 14.7181L9.95055 14.7837L9.44257 13.9699L8.80604 12.953L8.19523 11.9752L7.56048 10.9592L6.94966 9.9814L6.31491 8.96455L5.70409 7.98671L5.06756 6.97076L4.45763 5.9938L3.82377 4.97785L3.21206 4.00001L2.57642 2.98316L2.04008 2.125L2.11543 2.00532L2.75018 0.988477L3.36189 0.00975179L3.36809 0H6.07998L6.07466 0.00975179L5.46384 0.988477L4.82909 2.00532L4.75373 2.125L5.29008 2.98316L5.92572 4.00001L6.53565 4.97785L7.17129 5.9938L7.78122 6.97076L8.41775 7.98671L9.02679 8.96455L9.66332 9.9814L10.2741 10.9592L10.9089 11.9752L11.3078 12.6135ZM7.94751 18L9.27552 15.8768L1.36505 3.21629L0.00777483 5.38739L6.56186 15.8768L5.23473 18H7.94751ZM3.87057 17.9998L5.19682 15.8784L1.36525 9.74628L0 11.9307L2.46543 15.8766L1.1383 17.9998H3.87057ZM7.44401 0.000854492L6.11865 2.12231L9.95022 8.25442L11.3155 6.07001L8.85004 2.12497L10.1772 0.000854492H7.44401Z" fill="#808080"/>
</svg>
