<svg width="54" height="63" viewBox="0 0 54 63" fill="none" xmlns="http://www.w3.org/2000/svg">
<path fill-rule="evenodd" clip-rule="evenodd" d="M17.6071 12.0142L16.6685 12.5538C16.6293 12.5763 16.5912 12.6029 16.553 12.6297C16.4 12.7369 16.2437 12.8464 15.9971 12.6997C15.8509 12.6142 15.7046 12.5288 15.5582 12.4434C13.4358 11.2064 13.4321 8.14678 15.5579 6.91548C19.2001 4.81732 22.837 2.7096 26.4684 0.592316C26.8278 0.382749 27.0999 0.347801 27.483 0.571089C32.5171 3.49088 37.5524 6.40611 42.589 9.31676C43.2192 9.67976 43.2129 9.68348 42.589 10.0465C42.0523 10.3592 41.5129 10.6689 40.9734 10.9788C40.0753 11.4946 39.1766 12.0106 38.2887 12.5413C37.9293 12.7571 37.6647 12.7746 37.2903 12.5563C35.6445 11.5955 33.9948 10.642 32.3452 9.68863L32.345 9.68855L32.3449 9.68846L32.3447 9.68838L32.3446 9.68829C30.7498 8.76662 29.1551 7.84499 27.5641 6.91673C27.1672 6.68346 26.879 6.64355 26.4547 6.89303C23.5153 8.61762 20.5616 10.3157 17.6074 12.014L17.6073 12.0141L17.6071 12.0142ZM53.9105 15.8948C53.8915 15.8924 53.873 15.8862 53.8569 15.8757C52.8801 15.2397 51.8681 14.6638 50.8559 14.0878L50.8558 14.0878C50.1698 13.6974 49.4838 13.307 48.8087 12.8979C48.5734 12.7561 48.4174 12.8467 48.2425 12.9482L48.2123 12.9657L48.1847 12.9814C47.1989 13.5519 46.2126 14.122 45.2259 14.6916C44.2931 15.2334 44.2965 16.5841 45.2296 17.1253C46.1828 17.6782 47.119 18.2181 48.0611 18.747C48.413 18.9453 48.5603 19.1537 48.5491 19.5678C48.5291 20.6707 48.5323 21.7742 48.5355 22.878V22.878V22.8781V22.8782V22.8783V22.8783V22.8784V22.8785C48.5367 23.2889 48.5379 23.6992 48.5379 24.1096C48.5379 24.6396 49.1145 24.9683 49.5705 24.6983L53.8594 22.1593C53.8699 22.1531 53.8813 22.1486 53.8932 22.1463C53.9524 22.1351 54 22.0864 54 22.0262V16.0027C54 15.9492 53.9636 15.9015 53.9105 15.8948ZM48.5339 32.022C48.5327 31.6216 48.635 31.387 49.0019 31.1887C49.6727 30.8261 50.3304 30.4383 50.988 30.0507L50.988 30.0507C51.9323 29.494 52.8762 28.9375 53.8577 28.4561C53.8618 28.4541 53.8656 28.4518 53.8693 28.4491C53.9228 28.4107 53.9974 28.4489 53.9974 28.5148V46.2848C53.9974 46.7485 53.6307 47.2626 53.2286 47.4937C48.2777 50.3519 43.3256 53.2081 38.3722 56.0622C38.0475 56.2556 37.7482 56.0054 37.7482 55.6275V53.3466C37.7482 53.0947 37.7509 52.8426 37.7535 52.5905V52.5905V52.5904V52.5904V52.5903V52.5903V52.5902V52.5901V52.5901C37.7597 51.9912 37.7659 51.3925 37.737 50.7956C37.7145 50.3204 37.8705 50.0621 38.2923 49.8214C39.9954 48.8532 41.6922 47.8743 43.389 46.8954L43.3901 46.8948L43.3912 46.8941L43.3923 46.8935L43.3934 46.8929L43.3945 46.8923L43.3956 46.8916L43.3967 46.891L43.3978 46.8904C44.927 46.0082 46.4562 45.126 47.9899 44.2517C48.4004 44.0171 48.5564 43.7702 48.5564 43.2849C48.5439 41.1988 48.543 39.1128 48.5421 37.027V37.0269V37.0268V37.0268V37.0267V37.0267V37.0266V37.0266V37.0265C48.5413 35.3582 48.5406 33.69 48.5339 32.022ZM31.8907 53.5318C32.1386 53.3892 32.4067 53.4179 32.4233 53.7034C32.4251 54.34 32.4248 54.9764 32.4245 55.6127V55.6127V55.6128V55.6128V55.6129V55.6129V55.6129V55.613V55.613C32.4239 56.7397 32.4234 57.8661 32.4346 58.9925C32.4383 59.3717 32.3197 59.5837 31.9803 59.7733C30.5514 60.5692 29.1401 61.3962 27.7287 62.2233C27.6851 62.2488 27.6376 62.2702 27.5897 62.2919L27.5895 62.292L27.5889 62.2922C27.5513 62.3093 27.5135 62.3264 27.4771 62.3457C27.437 62.367 27.3966 62.3907 27.3558 62.4146L27.3557 62.4146C27.216 62.4966 27.0717 62.5813 26.9159 62.5813C26.8093 62.5813 26.7061 62.5456 26.6204 62.4822C26.0267 62.0432 25.3827 61.6875 24.7387 61.3318L24.7386 61.3317L24.7386 61.3317L24.7385 61.3317L24.7384 61.3316L24.7384 61.3316L24.7383 61.3316L24.7383 61.3315L24.7382 61.3315C24.3315 61.1069 23.9247 60.8822 23.5307 60.6365C23.1069 60.3726 22.6703 60.1288 22.2337 59.8851L22.2336 59.885C22.1276 59.8258 22.0216 59.7667 21.9159 59.7072C21.7274 59.6012 21.5752 59.4902 21.5752 59.2407V57.3392C21.5752 55.5117 23.5477 54.3713 25.1368 55.2739C25.3204 55.3785 25.5045 55.5054 25.6891 55.6327L25.6891 55.6327C26.1342 55.9396 26.5817 56.2481 27.0298 56.2481C27.4525 56.2525 27.8776 55.9497 28.3026 55.6469C28.4887 55.5144 28.6747 55.3819 28.8605 55.2751L31.8907 53.5318ZM43.2042 22.6015C43.183 24.3217 43.1768 26.0432 43.2042 27.7646C43.2117 28.2162 43.0719 28.4607 42.6714 28.7014C41.1027 29.5954 39.5388 30.4981 37.9748 31.4009C36.3463 32.3409 34.7177 33.2809 33.0836 34.2112C32.5994 34.4907 32.3998 34.7801 32.3998 35.3639C32.4154 37.2869 32.4161 39.2095 32.4167 41.132C32.4173 42.8797 32.4179 44.6273 32.4297 46.3748C32.4297 46.905 32.2675 47.1844 31.8058 47.4339C30.3345 48.2372 28.8869 49.0867 27.4456 49.945C27.1174 50.1383 26.879 50.1421 26.547 49.945C25.0533 49.0555 23.5483 48.1823 22.0283 47.3378C21.6615 47.1333 21.5616 46.8963 21.5616 46.4996C21.5716 45.0688 21.5716 43.638 21.5716 42.2072V40.7764V39.4043L21.5711 39.2704C21.5662 37.9457 21.5614 36.6252 21.5904 35.2977C21.6028 34.7614 21.4069 34.4845 20.9664 34.235C19.4658 33.3777 17.9685 32.5144 16.4712 31.6512L16.4708 31.6509L16.4704 31.6507L16.47 31.6504L16.4695 31.6502L16.4691 31.65L16.4687 31.6497L16.4683 31.6495L16.468 31.6493L16.4676 31.6491L16.4672 31.6489L16.4668 31.6486L16.4665 31.6484C14.7539 30.6611 13.0413 29.6737 11.3237 28.6952C10.9282 28.4694 10.7846 28.2261 10.7921 27.7733C10.8171 26.0531 10.8108 24.3317 10.7921 22.6103C10.7762 22.4593 10.8083 22.3072 10.8838 22.1756C10.9593 22.0439 11.0744 21.9394 11.2127 21.8768C12.7285 21.0269 14.2351 20.1578 15.7326 19.2697C16.0758 19.0663 16.3216 19.0514 16.6798 19.2597C18.2368 20.169 19.7976 21.0704 21.3581 21.9717L21.3591 21.9723L21.3593 21.9724C23.044 22.9454 24.7283 23.9183 26.4073 24.9005C26.8378 25.15 27.1523 25.15 27.5866 24.9005C29.342 23.872 31.1015 22.8563 32.8605 21.841L32.861 21.8407C34.3467 20.9831 35.832 20.1257 37.3141 19.261C37.6673 19.0501 37.9118 19.0526 38.2612 19.261C39.7588 20.1483 41.265 21.0177 42.7799 21.8693C42.919 21.9309 43.0349 22.035 43.1111 22.1665C43.1873 22.298 43.2199 22.4503 43.2042 22.6015ZM11.2068 47.2414L11.2067 47.2414L11.2054 47.2406L11.2044 47.2401C9.46085 46.2336 7.71732 45.2272 5.9688 44.2293C5.57695 44.0047 5.43466 43.7627 5.43715 43.3074C5.44713 41.432 5.44714 39.5563 5.44714 37.6804V37.6801C5.44715 35.8042 5.44715 33.9281 5.45714 32.052C5.45714 31.6353 5.35728 31.3846 4.96419 31.1725C4.13537 30.729 3.32235 30.2514 2.50939 29.7739L2.5093 29.7738L2.5092 29.7738L2.5091 29.7737C2.1789 29.5798 1.84872 29.3858 1.51749 29.1941L0.289638 28.4866C0.173746 28.4199 0.0263754 28.4848 0.0124914 28.6178C0.0124914 34.6287 0.00831945 40.64 0 46.6517C0 47.0522 0.217138 47.1782 0.499167 47.3378C4.44591 49.6106 8.39014 51.8867 12.3319 54.1662C14.073 55.1717 16.2376 53.9127 16.249 51.9021C16.2513 51.4954 16.2549 51.0901 16.2603 50.6847C16.2566 50.273 16.1156 50.0647 15.7649 49.8651C14.2435 48.9944 12.7253 48.118 11.2071 47.2417L11.207 47.2416L11.2069 47.2416L11.2068 47.2415L11.2068 47.2414ZM3.23653 24.0064L3.23682 24.0065L3.23727 24.0068L3.23766 24.007L3.23797 24.0072C3.80129 24.3328 4.36462 24.6585 4.92938 24.9816C5.22648 25.1496 5.44845 24.9251 5.44934 24.5838C5.45014 24.2763 5.45144 23.9687 5.45274 23.6611L5.45274 23.6606L5.45274 23.6601L5.45274 23.6596V23.6596C5.45806 22.3982 5.46338 21.1358 5.43476 19.8747C5.41979 19.2659 5.57954 18.9154 6.1436 18.6123C8.2751 17.4687 8.24555 14.3999 6.15713 13.1794L5.75052 12.9415C5.4947 12.7906 5.30499 12.8168 5.07038 12.9577C3.51548 13.8671 1.96061 14.774 0.39447 15.6634C0.265493 15.7232 0.158446 15.8219 0.0884012 15.9456C0.0183564 16.0693 -0.0112219 16.2119 0.00382558 16.3532C0.0188006 18.1146 0.0225443 19.8772 0.00382558 21.6385C-0.002414 22.024 0.128666 22.2298 0.459364 22.4157C1.38925 22.9385 2.31288 23.4724 3.23653 24.0064ZM10.7993 39.2302C10.7993 37.1508 12.9838 35.9681 14.8613 36.8621C15.9607 37.386 16.3887 38.0608 16.2727 39.2945C16.1755 40.326 16.2015 41.3695 16.2275 42.4122C16.2362 42.7616 16.2449 43.1109 16.249 43.4597C16.254 43.8875 16.1729 43.9736 15.7773 43.7403C14.6214 43.0556 13.4556 42.3844 12.2889 41.7127C11.9126 41.4961 11.5362 41.2794 11.16 41.0621C11.1444 41.0531 11.1287 41.0443 11.1131 41.0355L11.1129 41.0354C10.9517 40.9446 10.7993 40.8588 10.7993 40.6155V39.2302ZM42.7424 34.8262C41.1875 35.7277 39.6272 36.6217 38.0614 37.5082C37.9595 37.5551 37.8744 37.6322 37.8177 37.729C37.761 37.8258 37.7355 37.9377 37.7445 38.0495C37.7547 40.6876 40.593 42.3356 42.8862 41.0315L42.9969 40.9685C43.1909 40.8517 43.1901 40.6933 43.1892 40.522L43.1891 40.487C43.1891 39.8871 43.1883 39.287 43.1874 38.6869V38.6851C43.1858 37.4851 43.1841 36.2848 43.1891 35.0844C43.2016 34.6578 43.0781 34.6316 42.7424 34.8262ZM23.0103 15.0684C24.2107 14.3748 25.4121 13.6817 26.6142 12.989C26.6358 12.9763 26.657 12.9632 26.678 12.9502C26.8411 12.8495 26.9955 12.7542 27.2332 12.8879C29.5381 14.2438 29.5371 17.5726 27.2245 18.9155C27.1577 18.962 27.0781 18.987 26.9967 18.987C26.9152 18.987 26.8358 18.962 26.769 18.9155L26.6717 18.8593C25.4637 18.1613 24.259 17.4652 23.0171 16.7483C22.3717 16.3758 22.3655 15.442 23.0103 15.0684Z" fill="black"/>
</svg>
