<svg width="62" height="54" viewBox="0 0 62 54" fill="none" xmlns="http://www.w3.org/2000/svg">
<path d="M46.9452 16.5045C45.812 15.8635 44.3551 15.8635 43.0601 16.5045L33.9948 21.7923L27.8433 25.1573L18.9399 30.4451C17.8068 31.0861 16.3499 31.0861 15.0548 30.4451L8.094 26.2789C6.96084 25.638 6.15144 24.3561 6.15144 22.9139V14.9021C6.15144 13.6202 6.79896 12.3383 8.094 11.5371L15.0548 7.53116C16.188 6.89021 17.6449 6.89021 18.9399 7.53116L25.9008 11.6973C27.0339 12.3383 27.8433 13.6202 27.8433 15.0623V20.3501L33.9948 16.8249V11.3769C33.9948 10.095 33.3473 8.81306 32.0522 8.01187L19.1018 0.480712C17.9687 -0.160237 16.5117 -0.160237 15.2167 0.480712L1.94256 8.17211C0.64752 8.81306 0 10.095 0 11.3769V26.4392C0 27.7211 0.64752 29.003 1.94256 29.8042L15.0548 37.3353C16.188 37.9763 17.6449 37.9763 18.9399 37.3353L27.8433 32.2077L33.9948 28.6825L42.8982 23.5549C44.0313 22.9139 45.4883 22.9139 46.7833 23.5549L53.7441 27.5608C54.8773 28.2018 55.6867 29.4837 55.6867 30.9258V38.9377C55.6867 40.2196 55.0392 41.5015 53.7441 42.3027L46.9452 46.3086C45.812 46.9496 44.3551 46.9496 43.0601 46.3086L36.0992 42.3027C34.9661 41.6617 34.1567 40.3798 34.1567 38.9377V33.8101L28.0052 37.3353V42.6231C28.0052 43.905 28.6527 45.1869 29.9478 45.9881L43.0601 53.5193C44.1932 54.1602 45.6501 54.1602 46.9452 53.5193L60.0574 45.9881C61.1906 45.3472 62 44.0653 62 42.6231V27.4006C62 26.1187 61.3525 24.8368 60.0574 24.0356L46.9452 16.5045Z" fill="black"/>
</svg>
